<svg xmlns="http://www.w3.org/2000/svg">
<defs>
<font id="EvogriaItalic" horiz-adv-x="1026" >
  <font-face 
    font-family="EvogriaItalic"
    font-weight="400"
    font-style="italic"
    font-stretch="normal"
    units-per-em="2048"
    panose-1="2 0 8 0 0 0 0 9 0 0"
    ascent="1638"
    descent="-410"
    x-height="1607"
    cap-height="1692"
    bbox="-764 -818 3653.82 2283"
    underline-thickness="150"
    underline-position="-442"
    slope="-11"
    unicode-range="U+001D-FB06"
  />
<missing-glyph horiz-adv-x="2011" 
d="M1477 1706q-156 -38 -270 -142q-39 -34 -105 -115q-80 -90 -112 -123q-97 -98 -155 -138q-92 -64 -182 -64q-72 0 -115 36q-48 41 -45 114q2 18 6 36q12 63 53 118q57 76 138 90q21 4 38 4q26 0 46 -8q38 -17 29 -68q-9 13 -24 13q-12 0 -26 -9q-15 -12 -18 -26
q-7 -35 30 -35h1q36 0 64 40q14 22 19 45q4 21 -3 41q-5 43 -42 64q-40 23 -100 23q-16 0 -33 -2q-132 -10 -231 -107l42 213h995zM361 1085q62 -79 191 -79q19 0 38 3q108 8 277 151q47 40 134 117q77 71 106 94q77 60 143 60q37 0 71 -19q97 -48 207 -48q74 0 152 22
q156 43 305 161q-54 -196 -216 -364q-31 -30 -328 -286h-65q-49 0 -73 39l-127 -106h190q-279 -256 -358 -455q-23 -55 -32 -104q-16 -79 2 -141q27 -96 136 -134h-235l163 838l47 22l8 41h-773zM594 830q92 0 124 -38t14 -130l-130 -666h-453l162 834h283zM834 834h43
l-163 -838h-43zM1450 -4q258 56 449 201l-39 -201h-410zM1903 214q-175 -87 -317 -104q-27 -3 -55 -3q-96 0 -144 46q-45 47 -30 126q6 30 22 67q58 142 255 344q91 93 132 140h185l-11 -57h71zM1825 897q159 197 204 428q9 49 14 103q11 159 9 159q18 60 136 94l-153 -784
h-210zM1123 1247q-87 0 -158 -51q-61 -47 -83 -114q-7 -16 -10 -33q-9 -44 10 -75q23 -41 81 -41q9 0 20 2q72 6 107 71q8 19 11 32q8 44 -28 74q-31 26 -25 58q1 5 4 11q15 39 68 50z" />
    <glyph glyph-name=".notdef" horiz-adv-x="2011" 
d="M1477 1706q-156 -38 -270 -142q-39 -34 -105 -115q-80 -90 -112 -123q-97 -98 -155 -138q-92 -64 -182 -64q-72 0 -115 36q-48 41 -45 114q2 18 6 36q12 63 53 118q57 76 138 90q21 4 38 4q26 0 46 -8q38 -17 29 -68q-9 13 -24 13q-12 0 -26 -9q-15 -12 -18 -26
q-7 -35 30 -35h1q36 0 64 40q14 22 19 45q4 21 -3 41q-5 43 -42 64q-40 23 -100 23q-16 0 -33 -2q-132 -10 -231 -107l42 213h995zM361 1085q62 -79 191 -79q19 0 38 3q108 8 277 151q47 40 134 117q77 71 106 94q77 60 143 60q37 0 71 -19q97 -48 207 -48q74 0 152 22
q156 43 305 161q-54 -196 -216 -364q-31 -30 -328 -286h-65q-49 0 -73 39l-127 -106h190q-279 -256 -358 -455q-23 -55 -32 -104q-16 -79 2 -141q27 -96 136 -134h-235l163 838l47 22l8 41h-773zM594 830q92 0 124 -38t14 -130l-130 -666h-453l162 834h283zM834 834h43
l-163 -838h-43zM1450 -4q258 56 449 201l-39 -201h-410zM1903 214q-175 -87 -317 -104q-27 -3 -55 -3q-96 0 -144 46q-45 47 -30 126q6 30 22 67q58 142 255 344q91 93 132 140h185l-11 -57h71zM1825 897q159 197 204 428q9 49 14 103q11 159 9 159q18 60 136 94l-153 -784
h-210zM1123 1247q-87 0 -158 -51q-61 -47 -83 -114q-7 -16 -10 -33q-9 -44 10 -75q23 -41 81 -41q9 0 20 2q72 6 107 71q8 19 11 32q8 44 -28 74q-31 26 -25 58q1 5 4 11q15 39 68 50z" />
    <glyph glyph-name=".null" horiz-adv-x="0" 
 />
    <glyph glyph-name=".null" horiz-adv-x="0" 
 />
    <glyph glyph-name="nonmarkingreturn" horiz-adv-x="508" 
 />
    <glyph glyph-name="space" unicode=" " horiz-adv-x="508" 
 />
    <glyph glyph-name="space" unicode="&#xa0;" horiz-adv-x="508" 
 />
    <glyph glyph-name="exclam" unicode="!" horiz-adv-x="885" 
d="M330 528l226 1164h336l-226 -1164h-336zM633 314l-61 -313h-354l61 313h354z" />
    <glyph glyph-name="quotedbl" unicode="&#x22;" horiz-adv-x="1071" 
d="M425 1141l55 665h336l-206 -665h-185zM850 1141l55 665h336l-206 -665h-185z" />
    <glyph glyph-name="numbersign" unicode="#" horiz-adv-x="1403" 
d="M1312 1027l-96 -263h217l-56 -283h-267l-176 -480h-302l176 480h-233l-176 -481h-303l177 481h-125l56 283h174l96 263h-219l54 282h268l142 383h302l-141 -383h233l141 384h303l-142 -384h123l-54 -282h-172zM913 764l97 263h-233l-97 -263h233z" />
    <glyph glyph-name="dollar" unicode="$" horiz-adv-x="1255" 
d="M748 1675l30 156h335l-30 -156h79q101 0 161 -67q60 -68 42 -164l-67 -341h-336l51 259h-318l-52 -267q-22 -110 137 -110q208 0 326 -110q125 -118 87 -313l-67 -348q-19 -96 -106 -165q-86 -66 -187 -66h-80l-30 -155h-334l30 155h-80q-101 0 -161 66q-61 69 -42 165
l66 340h336l-50 -258h318l51 266q22 110 -137 110q-208 0 -326 111q-125 118 -87 312l68 349q18 96 106 164q86 67 187 67h80z" />
    <glyph glyph-name="percent" unicode="%" horiz-adv-x="2077" 
d="M741 1558l-109 -560h174l109 560h-174zM1008 1722q72 0 116 -35q45 -36 35 -86l-126 -646q-9 -50 -68 -86q-58 -35 -130 -35h-296q-71 0 -115 35q-45 36 -35 86l125 646q10 50 69 86q58 35 128 35h297zM616 0l953 1692h262l-954 -1692h-261zM1624 694l-109 -560h175
l108 560h-174zM1891 858q72 0 116 -35q45 -36 35 -86l-125 -646q-10 -50 -69 -86q-58 -35 -129 -35h-297q-71 0 -115 35q-45 36 -35 86l125 646q10 50 69 86q58 35 129 35h296z" />
    <glyph glyph-name="ampersand" unicode="&#x26;" horiz-adv-x="1350" 
d="M1357 541h-56q-68 0 -99 -22q-34 -24 -46 -87l-39 -201q-19 -96 -106 -164q-86 -67 -187 -67h-494q-101 0 -161 67q-61 68 -42 164l78 400q32 165 160 275q-48 86 -24 208l67 347q19 96 106 164q86 67 187 67h452q101 0 161 -67q61 -68 42 -164l-58 -298
q-38 -194 -209 -312q-160 -111 -368 -111q-159 0 -180 -109l-62 -318h318l23 119q82 421 542 423h56zM675 1046q52 8 107 8q159 0 180 109l42 216h-276l-54 -278q-3 -30 1 -55z" />
    <glyph glyph-name="quotesingle" unicode="'" horiz-adv-x="654" 
d="M425 1141l55 665h336l-206 -665h-185z" />
    <glyph glyph-name="parenleft" unicode="(" horiz-adv-x="938" 
d="M543 1518q35 179 193 288q148 103 341 103h56l-42 -216h-56q-150 -16 -170 -118l-296 -1522q-20 -102 124 -118h56l-42 -216h-56q-193 0 -301 103q-115 109 -81 288z" />
    <glyph glyph-name="parenright" unicode=")" horiz-adv-x="942" 
d="M626 110q-34 -179 -193 -288q-148 -103 -341 -103h-56l42 216h56q150 16 170 118l296 1522q20 102 -124 118h-56l42 216h56q193 0 301 -103q116 -109 81 -288z" />
    <glyph glyph-name="asterisk" unicode="*" horiz-adv-x="1226" 
d="M838 796h-186q26 311 7 335.5t-324 58.5l36 185q318 36 347 61t123 336h186q-24 -311 -4 -336t324 -61l-36 -185q-317 -34 -347 -58.5t-126 -335.5z" />
    <glyph glyph-name="plus" unicode="+" horiz-adv-x="1194" 
d="M909 1066h327l-55 -283h-327l-63 -327h-282l63 327h-327l55 283h327l64 326h282z" />
    <glyph glyph-name="comma" unicode="," horiz-adv-x="672" 
d="M545 315l-61 -313l-318 -354l68 354h-104l61 313h354z" />
    <glyph glyph-name="hyphen" unicode="-" horiz-adv-x="1040" 
d="M992 662h-753l55 283h753z" />
    <glyph glyph-name="hyphen" unicode="&#xad;" horiz-adv-x="1040" 
d="M992 662h-753l55 283h753z" />
    <glyph glyph-name="period" unicode="." horiz-adv-x="669" 
d="M545 314l-61 -313h-354l61 313h354z" />
    <glyph glyph-name="slash" unicode="/" horiz-adv-x="945" 
d="M149 0l622 1692h303l-623 -1692h-302z" />
    <glyph glyph-name="zero" unicode="0" horiz-adv-x="1302" 
d="M807 1379l-207 -1066h249l207 1066h-249zM1204 1692q102 0 162 -67q61 -68 42 -164l-239 -1230q-19 -96 -106 -164q-86 -67 -188 -67h-424q-101 0 -161 67q-61 68 -42 164l239 1230q19 96 106 164q86 67 187 67h424z" />
    <glyph glyph-name="one" unicode="1" horiz-adv-x="1302" 
d="M905 313h293l-61 -313h-921l61 313h293l207 1066h-293l61 313h380q102 0 161 -67q61 -68 42 -164z" />
    <glyph glyph-name="two" unicode="2" horiz-adv-x="1302" 
d="M588 313h585l-61 -313h-921l113 580q38 195 189 310q148 113 354 113q67 0 98 22q35 24 47 87l52 267h-249l-50 -258h-336l66 340q19 96 106 164q86 67 187 67h424q102 0 162 -67q61 -68 42 -164l-68 -349q-38 -195 -188 -310q-148 -113 -354 -113q-68 0 -99 -22
q-35 -24 -47 -87z" />
    <glyph glyph-name="three" unicode="3" horiz-adv-x="1302" 
d="M1027 1379h-249l-50 -258h-336l66 340q19 96 106 164q86 67 187 67h424q102 0 162 -67q61 -68 42 -164l-68 -349q-32 -165 -149 -266q78 -101 46 -266l-68 -349q-19 -96 -106 -164q-86 -67 -188 -67h-424q-101 0 -161 67q-61 68 -42 164l66 341h336l-50 -259h249l52 267
q12 63 -13 87q-23 22 -90 22h-165l61 314h165q67 0 98 22q35 24 47 87z" />
    <glyph glyph-name="four" unicode="4" horiz-adv-x="1302" 
d="M854 696l194 996h336l-194 -996h133l-61 -313h-133l-74 -383h-336l74 383h-366q-101 0 -161 66q-61 68 -42 164l364 1079h310l-320 -996h276z" />
    <glyph glyph-name="five" unicode="5" horiz-adv-x="1302" 
d="M814 1379l-61 -314q183 86 308 86q83 0 140 -38q130 -86 83 -325l-108 -557q-19 -96 -106 -164q-86 -67 -188 -67h-424q-101 0 -161 67q-61 68 -42 164l66 341h336l-50 -259h249l92 475q12 63 -5 86q-17 22 -83 22q-68 0 -106 -21q-43 -26 -55 -87l-23 -119h-336
l199 1023h921l-61 -313h-585z" />
    <glyph glyph-name="six" unicode="6" horiz-adv-x="1302" 
d="M600 313h249l59 305q12 62 -13 87q-23 22 -90 22q-68 0 -99 -22q-35 -25 -47 -87zM722 940q142 70 253 70q97 0 169 -53q145 -106 100 -339l-75 -387q-19 -96 -106 -164q-86 -67 -188 -67h-424q-101 0 -161 67q-61 68 -42 164l239 1230q19 96 106 164q86 67 187 67h424
q102 0 162 -67q61 -68 42 -164l-66 -340h-336l50 258h-249z" />
    <glyph glyph-name="seven" unicode="7" horiz-adv-x="1302" 
d="M770 1379l-50 -258h-336l66 340q19 96 106 164q86 67 187 67h424q102 0 162 -67q61 -68 42 -164q-45 -230 -146 -424q-70 -133 -251 -391q-218 -309 -270 -576l-14 -70h-336l14 70q40 209 136 395q70 134 234 366q220 313 279 548h-247z" />
    <glyph glyph-name="eight" unicode="8" horiz-adv-x="1302" 
d="M1044 1379h-249l-52 -267q-12 -63 12 -87q24 -22 92 -22q67 0 98 22q35 24 47 87zM588 313h249l52 267q12 63 -13 87q-23 22 -90 22q-68 0 -100 -22q-34 -24 -46 -87zM407 1112l68 349q19 96 106 164q86 67 187 67h424q102 0 162 -67q61 -68 42 -164l-68 -349
q-32 -165 -149 -266q78 -101 46 -266l-68 -349q-19 -96 -106 -164q-86 -67 -188 -67h-424q-101 0 -161 67q-61 68 -42 164l68 349q32 165 147 266q-76 101 -44 266z" />
    <glyph glyph-name="nine" unicode="9" horiz-adv-x="1302" 
d="M1043 1379h-249l-59 -305q-12 -62 12 -87q23 -22 91 -22q67 0 99 22q35 25 47 87zM921 752q-142 -70 -253 -70q-97 0 -169 53q-145 107 -100 339l75 387q19 96 106 164q86 67 187 67h424q102 0 162 -67q61 -68 42 -164l-239 -1230q-19 -96 -106 -164q-86 -67 -188 -67
h-424q-101 0 -161 67q-61 68 -42 164l66 341h336l-50 -259h249z" />
    <glyph glyph-name="colon" unicode=":" horiz-adv-x="525" 
d="M476 314l-61 -313h-354l61 313h354zM667 1296l-61 -313h-354l61 313h354z" />
    <glyph glyph-name="semicolon" unicode=";" horiz-adv-x="525" 
d="M476 315l-61 -313l-318 -354l68 354h-104l61 313h354zM667 1297l-61 -313h-354l61 313h354z" />
    <glyph glyph-name="semicolon" unicode="&#x37e;" horiz-adv-x="525" 
d="M476 315l-61 -313l-318 -354l68 354h-104l61 313h354zM667 1297l-61 -313h-354l61 313h354z" />
    <glyph glyph-name="less" unicode="&#x3c;" horiz-adv-x="1144" 
d="M563 895l614 -192l-55 -283l-872 331l56 288l1000 331l-55 -283z" />
    <glyph glyph-name="equal" unicode="=" horiz-adv-x="1152" 
d="M1137 481h-936l56 283h936zM1244 1027h-936l54 282h936z" />
    <glyph glyph-name="greater" unicode="&#x3e;" horiz-adv-x="1144" 
d="M315 1087l55 283l872 -331l-56 -288l-1000 -331l55 283l688 192z" />
    <glyph glyph-name="question" unicode="?" horiz-adv-x="1045" 
d="M406 527q71 121 200 304q220 313 279 548h-247l-50 -258h-336l66 340q19 96 106 165q86 66 187 66h424q102 0 162 -66q61 -69 42 -165q-45 -230 -146 -424q-70 -133 -251 -391q-42 -60 -80 -119h-356zM720 314l-61 -313h-354l61 313h354z" />
    <glyph glyph-name="at" unicode="@" horiz-adv-x="1984" 
d="M1171 531l69 355h-126q-127 0 -144 -87l-79 -410h710l186 958h-1145l-273 -1402h709l-49 -256h-780q-83 0 -132 55t-34 134l299 1536q15 78 86 134q69 54 152 54h1287q83 0 133 -54q49 -56 34 -134l-211 -1084q-15 -79 -86 -134t-154 -55h-850q-81 0 -128 53
q-48 54 -33 130l92 475q30 154 166 248q127 87 292 87h392l-117 -603h-266z" />
    <glyph glyph-name="A" unicode="A" horiz-adv-x="1145" 
d="M585 656h164l58 721zM463 343l-135 -343h-340l657 1692h447l-2 -1692h-341l1 343h-287z" />
    <glyph glyph-name="B" unicode="B" horiz-adv-x="1219" 
d="M481 313h159q159 0 180 110l31 157q9 46 -21 78q-30 31 -78 31h-198zM688 1379l-73 -376h155q49 0 91 31q43 33 52 78l52 267h-277zM413 1692h699q102 0 163 -67q61 -68 42 -164l-68 -349q-30 -153 -158 -250q131 -100 96 -282l-31 -157q-37 -194 -208 -312
q-161 -111 -369 -111h-495z" />
    <glyph glyph-name="C" unicode="C" horiz-adv-x="1171" 
d="M990 1379h-318l-207 -1066h318l50 259h336l-66 -341q-19 -96 -106 -164q-86 -67 -187 -67h-494q-101 0 -161 67q-61 68 -42 164l239 1230q19 96 106 164q86 67 187 67h494q101 0 161 -67q61 -68 42 -164l-66 -340h-336z" />
    <glyph glyph-name="D" unicode="D" horiz-adv-x="1240" 
d="M688 1379l-207 -1066h159q159 0 180 110l186 956h-318zM413 1692h742q101 0 161 -67q61 -68 42 -164l-202 -1038q-37 -194 -208 -312q-161 -111 -369 -111h-495z" />
    <glyph glyph-name="E" unicode="E" horiz-adv-x="1068" 
d="M481 313h560l-61 -313h-896l329 1692h896l-61 -313h-560l-73 -376h466l-61 -314h-466z" />
    <glyph glyph-name="F" unicode="F" horiz-adv-x="1030" 
d="M413 1692h896l-61 -313h-560l-73 -376h466l-61 -314h-466l-134 -689h-336z" />
    <glyph glyph-name="G" unicode="G" horiz-adv-x="1200" 
d="M839 603h-159l61 313h495l-133 -685q-19 -96 -106 -164q-86 -67 -187 -67h-494q-101 0 -161 67q-61 68 -42 164l239 1230q19 96 106 164q86 67 187 67h494q101 0 161 -67q61 -68 42 -164l-66 -340h-336l50 258h-318l-207 -1066h318z" />
    <glyph glyph-name="H" unicode="H" horiz-adv-x="1258" 
d="M554 689l-134 -689h-336l329 1692h336l-134 -689h318l134 689h336l-329 -1692h-336l134 689h-318z" />
    <glyph glyph-name="I" unicode="I" horiz-adv-x="604" 
d="M84 0l329 1692h336l-329 -1692h-336z" />
    <glyph glyph-name="J" unicode="J" horiz-adv-x="821" 
d="M217 313q160 0 181 110l247 1269h336l-247 -1269q-37 -194 -208 -312q-162 -111 -370 -111h-179l61 313h179z" />
    <glyph glyph-name="K" unicode="K" horiz-adv-x="1158" 
d="M554 689l-134 -689h-336l329 1692h336l-134 -689h129l342 689h341l-419 -846l90 -846h-341l-74 689h-129z" />
    <glyph glyph-name="L" unicode="L" horiz-adv-x="941" 
d="M84 0l329 1692h336l-268 -1379h466l-61 -313h-802z" />
    <glyph glyph-name="M" unicode="M" horiz-adv-x="1818" 
d="M1963 1692l-329 -1692h-336l217 1115l-451 -1115h-408l-19 1115l-217 -1115h-336l329 1692h466l43 -1375l575 1375h466z" />
    <glyph glyph-name="N" unicode="N" horiz-adv-x="1345" 
d="M632 1090l-212 -1090h-336l329 1692h466l62 -1095l213 1095h336l-329 -1692h-465z" />
    <glyph glyph-name="O" unicode="O" horiz-adv-x="1235" 
d="M672 1379l-207 -1066h318l207 1066h-318zM1139 1692q101 0 161 -67q61 -68 42 -164l-239 -1230q-19 -96 -106 -164q-86 -67 -187 -67h-494q-101 0 -161 67q-61 68 -42 164l239 1230q19 96 106 164q86 67 187 67h494z" />
    <glyph glyph-name="P" unicode="P" horiz-adv-x="1175" 
d="M688 1379l-90 -463h159q159 0 180 109l69 354h-318zM413 1692h742q101 0 161 -67q61 -68 42 -164l-85 -436q-37 -193 -208 -311q-161 -111 -369 -111h-159l-117 -603h-336z" />
    <glyph glyph-name="Q" unicode="Q" horiz-adv-x="1231" 
d="M989 1381h-318l-207 -1066h228q62 0 84 24q14 18 28 86zM1048 -48l-20 -101h-336l20 101q5 27 -4 50h-393q-101 0 -161 67q-60 68 -42 165l239 1229q19 96 106 165q86 66 187 66h494q101 0 161 -66q61 -69 42 -165l-201 -1038q-28 -143 -133 -248q66 -94 41 -225z" />
    <glyph glyph-name="R" unicode="R" horiz-adv-x="1231" 
d="M796 916q48 0 90 32q42 31 51 77l69 354h-318l-90 -463h198zM537 603l-117 -603h-336l329 1692h742q101 0 161 -67q61 -68 42 -164l-85 -436q-32 -166 -180 -265q109 -99 77 -267l-96 -493h-336l96 493q9 46 -21 79q-30 31 -78 31h-198z" />
    <glyph glyph-name="S" unicode="S" horiz-adv-x="1181" 
d="M978 1379h-318l-52 -267q-21 -109 138 -109q208 0 325 -111q125 -118 88 -312l-68 -349q-19 -96 -106 -164q-86 -67 -187 -67h-494q-101 0 -161 67q-61 68 -42 164l66 341h336l-50 -259h318l52 267q21 109 -138 109q-208 0 -325 111q-126 118 -88 312l68 349
q19 96 106 164q86 67 187 67h494q101 0 161 -67q61 -68 42 -164l-66 -340h-336z" />
    <glyph glyph-name="T" unicode="T" horiz-adv-x="994" 
d="M574 1379h-328l61 313h990l-61 -313h-327l-268 -1379h-335z" />
    <glyph glyph-name="U" unicode="U" horiz-adv-x="1242" 
d="M469 313h318l268 1379h336l-284 -1461q-19 -96 -106 -164q-86 -67 -187 -67h-494q-101 0 -161 67q-61 68 -42 164l284 1461h336z" />
    <glyph glyph-name="V" unicode="V" horiz-adv-x="1134" 
d="M1077 1692h341l-656 -1692h-447l1 1692h340q1 -466 -55 -1370q296 905 476 1370z" />
    <glyph glyph-name="W" unicode="W" horiz-adv-x="1927" 
d="M1049 1692h427l-63 -1376q279 913 448 1376h340l-618 -1692h-449l37 1218l-437 -1218h-449l39 1692h340q-11 -463 -88 -1376z" />
    <glyph glyph-name="X" unicode="X" horiz-adv-x="1097" 
d="M329 0h-341l419 846l-90 846h341q25 -232 44 -689q197 457 312 689h342l-420 -846l91 -846h-342q-26 233 -44 689q-197 -456 -312 -689z" />
    <glyph glyph-name="Y" unicode="Y" horiz-adv-x="1011" 
d="M762 579l-113 -579h-336l112 578l-136 1114h343q26 -247 19 -810q215 563 336 810h343z" />
    <glyph glyph-name="Z" unicode="Z" horiz-adv-x="906" 
d="M677 1379h-390l61 313h827l-683 -1379h390l-61 -313h-826z" />
    <glyph glyph-name="bracketleft" unicode="[" horiz-adv-x="814" 
d="M521 1909h514l-42 -216h-203l-342 -1758h203l-42 -216h-514z" />
    <glyph glyph-name="backslash" unicode="\" horiz-adv-x="896" 
d="M444 0l35 1692h303l-36 -1692h-302z" />
    <glyph glyph-name="bracketright" unicode="]" horiz-adv-x="814" 
d="M609 -281h-514l42 216h203l342 1758h-203l42 216h514z" />
    <glyph glyph-name="asciicircum" unicode="^" horiz-adv-x="1250" 
d="M905 1442l-302 -569h-283l490 818h288l172 -818h-283z" />
    <glyph glyph-name="underscore" unicode="_" horiz-adv-x="1437" 
d="M1237 -256h-1137l42 213h1137z" />
    <glyph glyph-name="grave" unicode="`" horiz-adv-x="731" 
d="M685 1673l-150 310h319l52 -310h-221z" />
    <glyph glyph-name="a" unicode="a" horiz-adv-x="1132" 
d="M606 623h155l55 685zM490 326l-128 -326h-323l624 1607h424l-1 -1607h-324v326h-272z" />
    <glyph glyph-name="b" unicode="b" horiz-adv-x="1215" 
d="M516 297h151q151 0 171 105l29 149q9 44 -20 74q-28 30 -74 30h-188zM713 1310l-70 -357h147q47 0 87 29q41 32 49 74l50 254h-263zM451 1607h664q97 0 155 -63q58 -65 41 -156l-65 -332q-28 -145 -151 -237q126 -95 92 -268l-29 -149q-36 -184 -199 -297
q-152 -105 -350 -105h-470z" />
    <glyph glyph-name="c" unicode="c" horiz-adv-x="1179" 
d="M1000 1310h-302l-197 -1013h302l48 246h320l-63 -324q-18 -91 -102 -155q-81 -64 -177 -64h-469q-96 0 -154 64q-57 64 -39 155l227 1169q17 91 100 156q82 63 178 63h469q96 0 153 -63q58 -65 41 -156l-63 -323h-320z" />
    <glyph glyph-name="d" unicode="d" horiz-adv-x="1238" 
d="M713 1310l-197 -1013h151q151 0 171 105l177 908h-302zM451 1607h705q96 0 153 -63q58 -65 41 -156l-192 -986q-36 -184 -199 -297q-152 -105 -350 -105h-470z" />
    <glyph glyph-name="e" unicode="e" horiz-adv-x="1084" 
d="M516 297h532l-58 -297h-851l312 1607h851l-57 -297h-532l-70 -357h443l-58 -298h-443z" />
    <glyph glyph-name="f" unicode="f" horiz-adv-x="1033" 
d="M452 1607h851l-57 -297h-532l-70 -357h443l-58 -298h-443l-127 -655h-319z" />
    <glyph glyph-name="g" unicode="g" horiz-adv-x="1209" 
d="M856 573h-151l58 297h471l-126 -651q-18 -91 -102 -155q-81 -64 -177 -64h-469q-96 0 -154 64q-57 64 -39 155l227 1169q17 91 100 156q82 63 178 63h469q96 0 153 -63q58 -65 41 -156l-63 -323h-320l48 245h-302l-197 -1013h302z" />
    <glyph glyph-name="h" unicode="h" horiz-adv-x="1258" 
d="M586 655l-127 -655h-319l312 1607h319l-127 -654h302l127 654h320l-312 -1607h-320l127 655h-302z" />
    <glyph glyph-name="i" unicode="i" horiz-adv-x="636" 
d="M140 0l312 1607h319l-312 -1607h-319z" />
    <glyph glyph-name="j" unicode="j" horiz-adv-x="829" 
d="M252 297q152 0 172 105l234 1205h319l-234 -1205q-36 -184 -198 -297q-153 -105 -351 -105h-170l58 297h170z" />
    <glyph glyph-name="k" unicode="k" horiz-adv-x="1181" 
d="M586 655l-127 -655h-319l312 1607h319l-127 -654h123l324 654h324l-397 -803l85 -804h-324l-70 655h-123z" />
    <glyph glyph-name="l" unicode="l" horiz-adv-x="946" 
d="M139 0l312 1607h319l-254 -1310h443l-58 -297h-762z" />
    <glyph glyph-name="m" unicode="m" horiz-adv-x="1789" 
d="M1925 1607l-312 -1607h-320l206 1059l-428 -1059h-388l-18 1059l-206 -1059h-319l312 1607h443l41 -1306l546 1306h443z" />
    <glyph glyph-name="n" unicode="n" horiz-adv-x="1340" 
d="M660 1035l-201 -1035h-319l312 1607h443l59 -1040l202 1040h319l-312 -1607h-442z" />
    <glyph glyph-name="o" unicode="o" horiz-adv-x="1233" 
d="M698 1310l-197 -1013h302l197 1013h-302zM1141 1607q96 0 153 -63q58 -65 41 -156l-227 -1169q-18 -91 -102 -155q-81 -64 -177 -64h-469q-96 0 -154 64q-57 64 -39 155l227 1169q17 91 100 156q82 63 178 63h469z" />
    <glyph glyph-name="p" unicode="p" horiz-adv-x="1162" 
d="M714 1310l-86 -440h151q151 0 171 104l66 336h-302zM452 1607h705q96 0 153 -63q58 -65 41 -156l-81 -414q-35 -184 -198 -296q-153 -105 -351 -105h-151l-111 -573h-319z" />
    <glyph glyph-name="q" unicode="q" horiz-adv-x="1232" 
d="M1002 1312h-302l-197 -1013h217q59 0 80 23q13 17 25 81zM1058 -46l-19 -96h-320l19 96q5 26 -3 47h-373q-96 0 -153 64q-58 65 -40 157l227 1167q18 92 101 157q82 63 178 63h469q96 0 153 -63q58 -65 40 -157l-192 -986q-26 -136 -125 -235q62 -90 38 -214z" />
    <glyph glyph-name="r" unicode="r" horiz-adv-x="1245" 
d="M816 870q46 0 86 31q40 29 48 73l66 336h-302l-86 -440h188zM570 573l-111 -573h-319l312 1607h705q96 0 153 -63q58 -65 41 -156l-81 -414q-30 -158 -172 -252q105 -94 74 -254l-91 -468h-320l91 468q9 44 -19 75q-29 30 -75 30h-188z" />
    <glyph glyph-name="s" unicode="s" horiz-adv-x="1194" 
d="M992 1310h-302l-50 -254q-20 -103 131 -103q198 0 310 -106q119 -112 83 -296l-64 -332q-18 -91 -102 -155q-81 -64 -177 -64h-469q-96 0 -154 64q-57 64 -39 155l63 324h319l-48 -246h302l49 254q20 104 -131 104q-197 0 -308 105q-120 112 -84 296l65 332
q17 91 100 156q82 63 178 63h469q96 0 153 -63q58 -65 41 -156l-63 -323h-320z" />
    <glyph glyph-name="t" unicode="t" horiz-adv-x="976" 
d="M589 1310h-312l57 297h941l-57 -297h-311l-255 -1310h-318z" />
    <glyph glyph-name="u" unicode="u" horiz-adv-x="1246" 
d="M509 297h302l254 1310h320l-269 -1388q-18 -91 -102 -155q-81 -64 -177 -64h-469q-96 0 -154 64q-57 64 -39 155l269 1388h319z" />
    <glyph glyph-name="v" unicode="v" horiz-adv-x="1125" 
d="M1072 1607h324l-623 -1607h-424v1607h323q1 -442 -53 -1301q282 860 453 1301z" />
    <glyph glyph-name="w" unicode="w" horiz-adv-x="1882" 
d="M1045 1607h405l-59 -1307q265 868 425 1307h323l-586 -1607h-427l35 1157l-415 -1157h-426l36 1607h323q-10 -439 -83 -1307z" />
    <glyph glyph-name="x" unicode="x" horiz-adv-x="1129" 
d="M378 0h-324l398 804l-86 803h324q24 -220 42 -654q188 434 296 654h325l-398 -803l86 -804h-325q-24 221 -42 655q-187 -434 -296 -655z" />
    <glyph glyph-name="y" unicode="y" horiz-adv-x="1013" 
d="M770 550l-107 -550h-320l107 549l-130 1058h326q25 -234 19 -769q204 535 318 769h326z" />
    <glyph glyph-name="z" unicode="z" horiz-adv-x="944" 
d="M697 1310h-370l57 297h785l-648 -1310h371l-58 -297h-785z" />
    <glyph glyph-name="braceleft" unicode="{" horiz-adv-x="1017" 
d="M697 845q110 -108 76 -283l-99 -509q-20 -102 124 -118h56l-42 -216h-56q-193 0 -301 103q-115 109 -81 288l99 509q20 102 -124 118h-56l42 216h56q150 16 170 118l87 447q35 179 193 288q148 103 341 103h56l-42 -216h-56q-150 -16 -170 -118l-87 -447
q-34 -175 -186 -283z" />
    <glyph glyph-name="bar" unicode="|" horiz-adv-x="597" 
d="M70 -413l453 2334h297l-453 -2334h-297z" />
    <glyph glyph-name="braceright" unicode="}" horiz-adv-x="1017" 
d="M572 1128l87 447q20 102 -124 118h-56l42 216h56q193 0 301 -103q116 -109 81 -288l-87 -447q-20 -102 124 -118h56l-42 -216h-56q-150 -16 -170 -118l-99 -509q-34 -179 -193 -288q-148 -103 -341 -103h-56l42 216h56q150 16 170 118l99 509q34 175 186 283
q-110 108 -76 283z" />
    <glyph glyph-name="asciitilde" unicode="~" horiz-adv-x="1310" 
d="M652 861q-19 11 -40 11q-55 0 -120 -77l-31 -43l-148 85l30 43q105 148 245 205q70 29 135 29q72 0 137 -37l157 -90q19 -11 40 -11q55 0 121 78l30 42l149 -85l-31 -42q-104 -148 -245 -206q-69 -29 -133 -29q-73 0 -139 38z" />
    <glyph glyph-name="exclamdown" unicode="&#xa1;" horiz-adv-x="885" 
d="M460 1080l-226 -1164h-336l226 1164h336zM157 1294l61 313h354l-61 -313h-354z" />
    <glyph glyph-name="cent" unicode="&#xa2;" horiz-adv-x="1179" 
d="M938 1607l53 149h233l-53 -151q75 -8 123 -61q58 -65 41 -156l-63 -323h-320l48 245h-302l-197 -1013h302l48 246h320l-63 -324q-18 -91 -102 -155q-81 -64 -177 -64h-155l-49 -137h-232l49 137h-82q-96 0 -154 64q-57 64 -39 155l227 1169q17 91 100 156q82 63 178 63
h266z" />
    <glyph glyph-name="sterling" unicode="&#xa3;" horiz-adv-x="1359" 
d="M780 672l-30 -152q-23 -118 -95 -207h615l-61 -313h-1053l61 313q159 0 180 110l49 249h-165l55 283h163l61 314q37 194 208 312q161 111 369 111h356l-61 -313h-356q-159 0 -180 -110l-61 -314h437l-55 -283h-437z" />
    <glyph glyph-name="currency" unicode="&#xa4;" horiz-adv-x="1277" 
d="M617 1276q35 11 72 11h418q29 0 54 -7l161 131l130 -152l-169 -137q-1 -15 -4 -31l-94 -485l114 -135l-189 -153l-101 119q-33 -10 -69 -10h-418q-44 0 -78 15l-154 -124l-128 153l187 152l91 468q1 7 4 15l-129 153l187 152zM697 1045l-73 -376h308l73 376h-308z" />
    <glyph glyph-name="yen" unicode="&#xa5;" horiz-adv-x="1341" 
d="M867 142l-28 -142h-336l28 142h-306l55 283h306l29 150h-306l55 282h218l-103 835h343q26 -247 19 -810q215 563 336 810h343l-426 -835h206l-55 -282h-294l-29 -150h294l-55 -283h-294z" />
    <glyph glyph-name="brokenbar" unicode="&#xa6;" horiz-adv-x="597" 
d="M70 -413l215 1105h297l-215 -1105h-297zM317 859l206 1062h297l-206 -1062h-297z" />
    <glyph glyph-name="section" unicode="&#xa7;" horiz-adv-x="1241" 
d="M1097 359q46 -91 22 -215l-46 -237q-18 -91 -100 -156q-83 -63 -179 -63h-469q-96 0 -152 63q-59 65 -41 156l44 228h320l-29 -150h302l31 159q20 103 -131 103q-198 0 -309 106q-120 112 -84 296l45 233q17 86 93 149q-46 91 -22 215l46 237q18 91 101 156q82 63 178 63
h469q96 0 153 -63q58 -65 40 -156l-44 -228h-320l29 150h-302l-31 -159q-20 -103 131 -103q198 0 310 -106q119 -112 83 -296l-45 -233q-17 -86 -93 -149zM874 528l41 213q20 104 -131 104q-80 0 -146 17l-42 -213q-20 -104 131 -104q80 0 147 -17z" />
    <glyph glyph-name="dieresis" unicode="&#xa8;" horiz-adv-x="1049" 
d="M810 1949l-48 -248h-281l48 248h281zM1278 1949l-48 -248h-281l48 248h281z" />
    <glyph glyph-name="copyright" unicode="&#xa9;" horiz-adv-x="1949" 
d="M749 1475l-245 -1260h934l245 1260h-934zM1783 1691q68 0 108 -46q40 -47 27 -113l-267 -1373q-13 -66 -71 -114q-58 -45 -126 -45h-1049q-68 0 -108 45q-40 48 -27 114l267 1373q13 66 71 113q58 46 126 46h1049zM1254 1156h-192l-125 -644h192l30 156h203l-40 -206
q-11 -58 -64 -98q-52 -41 -113 -41h-298q-61 0 -98 41q-36 40 -25 98l144 743q12 58 63 99q53 40 114 40h298q61 0 97 -40q38 -41 26 -99l-40 -205h-203z" />
    <glyph glyph-name="ordfeminine" unicode="&#xaa;" horiz-adv-x="776" 
d="M412.943 1101.79h102.296l36.2988 410.982zM336.387 923.592l-84.4766 -195.592h-213.171l411.823 964.161h279.828l-0.660156 -964.161h-213.831v195.592h-179.513zM643.5 302h-568.5l21 213h568.5z" />
    <glyph glyph-name="guillemotleft" unicode="&#xab;" horiz-adv-x="1216" 
d="M334 946l551 331l-45 -235l-309 -240l215 -240l-45 -235l-423 331zM763 946l551 331l-45 -235l-309 -240l215 -240l-45 -235l-423 331z" />
    <glyph glyph-name="logicalnot" unicode="&#xac;" horiz-adv-x="1144" 
d="M909 783h-653l55 283h936l-108 -559h-283z" />
    <glyph glyph-name="registered" unicode="&#xae;" horiz-adv-x="1681" 
d="M660 1475l-245 -1260h934l245 1260h-934zM1694 1691q68 0 108 -46q40 -47 27 -113l-267 -1373q-13 -66 -71 -114q-58 -45 -126 -45h-1049q-68 0 -108 45q-40 48 -27 114l267 1373q13 66 71 113q58 46 126 46h1049zM1029 874q29 0 55 20q25 19 31 47l42 214h-193l-55 -281
h120zM872 685l-71 -366h-203l199 1025h449q61 0 97 -40q39 -41 27 -99l-51 -264q-20 -101 -110 -161q67 -60 47 -162l-58 -299h-204l58 299q6 28 -13 48q-18 19 -47 19h-120z" />
    <glyph glyph-name="macron" unicode="&#xaf;" horiz-adv-x="1244" 
d="M1472 1945l-42 -215h-944l42 215h944z" />
    <glyph glyph-name="degree" unicode="&#xb0;" horiz-adv-x="1048" 
d="M1097.5 1590.5q88.5 -109.5 58.5 -264.5t-161 -264.5t-286 -109.5t-243 109.5t-58 264.5t160.5 264.5t285.5 109.5t243.5 -109.5zM809 1468q-59 0 -108.5 -41.5t-60.5 -100.5q-12 -59 21.5 -100.5t92.5 -41.5t108.5 41.5t61.5 100.5q11 59 -22.5 100.5t-92.5 41.5z" />
    <glyph glyph-name="plusminus" unicode="&#xb1;" horiz-adv-x="1194" 
d="M1029 0h-936l55 283h936zM909 1066h327l-55 -283h-327l-63 -327h-282l63 327h-327l55 283h327l64 326h282z" />
    <glyph glyph-name="uni00B2" unicode="&#xb2;" 
d="M567 727h410l-42 -219h-645l79 406q26 136 132 217q104 79 248 79q47 0 69 15q24 17 33 61l36 187h-175l-35 -181h-235l46 238q14 68 75 115q60 47 131 47h296q72 0 114 -47q43 -47 29 -115l-47 -244q-26 -136 -132 -217q-104 -79 -248 -79q-48 0 -69 -15
q-25 -17 -33 -61z" />
    <glyph glyph-name="uni00B3" unicode="&#xb3;" 
d="M870 1473h-175l-35 -181h-235l46 238q14 68 75 115q60 47 131 47h296q72 0 114 -47q43 -47 29 -115l-47 -244q-22 -115 -104 -186q54 -71 32 -186l-48 -245q-13 -67 -74 -114q-60 -47 -132 -47h-296q-71 0 -113 47q-43 47 -30 114l46 239h235l-35 -181h175l37 187
q8 44 -9 61q-17 15 -64 15h-116l43 220h116q47 0 69 15q24 17 33 61z" />
    <glyph glyph-name="acute" unicode="&#xb4;" horiz-adv-x="731" 
d="M475 1673l172 310h319l-270 -310h-221z" />
    <glyph glyph-name="mu" unicode="&#xb5;" horiz-adv-x="1246" 
d="M444 1607h319l-254 -1310h302l254 1310h320l-269 -1388q-18 -91 -102 -155q-81 -64 -177 -64h-386l-49 -254h-319z" />
    <glyph glyph-name="paragraph" unicode="&#xb6;" horiz-adv-x="1452" 
d="M1007 0l329 1692h295l-329 -1692h-295zM1166 1692l-329 -1692h-295l183 944h-18q-155 0 -243 109.5t-58 264.5t161 264.5t286 109.5h313z" />
    <glyph glyph-name="periodcentered" unicode="&#xb7;" horiz-adv-x="508" 
d="M483.236 978.893l-51.8477 -266.043h-300.892l51.8486 266.043h300.891z" />
    <glyph glyph-name="periodcentered" unicode="&#x2219;" horiz-adv-x="508" 
d="M483.236 978.893l-51.8477 -266.043h-300.892l51.8486 266.043h300.891z" />
    <glyph glyph-name="cedilla" unicode="&#xb8;" horiz-adv-x="741" 
d="M279 -277q42 0 77.5 25.5t42.5 61.5q7 37 -18 63q-18 16 -85 44l90 109q74 -11 123 -60q63 -65 45 -156q-17 -90 -105.5 -154.5t-195.5 -64.5q-108 0 -170 65l88 106q71 -39 108 -39z" />
    <glyph glyph-name="uni00B9" unicode="&#xb9;" 
d="M797 727h205l-42 -219h-645l42 219h205l145 746h-205l43 219h266q71 0 113 -47q43 -47 29 -115z" />
    <glyph glyph-name="ordmasculine" unicode="&#xba;" horiz-adv-x="913" 
d="M502.661 1513.97l-130.015 -607.775h199.312l130.015 607.775h-199.312zM795.029 1692.16q63.3574 0 100.976 -37.7988q38.2783 -38.998 27.0596 -93.5967l-149.814 -701.371q-11.8789 -54.5977 -67.3174 -92.9961q-53.457 -38.3984 -116.814 -38.3984h-309.528
q-63.3574 0 -101.636 38.3984q-37.6182 38.3984 -25.7383 92.9961l149.813 701.371q11.2197 54.5986 65.9971 93.5967q54.1182 37.7988 117.476 37.7988h309.527zM693.5 302h-568.5l21 213h568.5z" />
    <glyph glyph-name="guillemotright" unicode="&#xbb;" horiz-adv-x="1216" 
d="M765 658l-551 -331l45 235l309 240l-215 240l45 235l423 -331zM1194 658l-551 -331l45 235l309 240l-215 240l45 235l423 -331z" />
    <glyph glyph-name="onequarter" unicode="&#xbc;" horiz-adv-x="2649" 
d="M797 727h205l-42 -219h-645l42 219h205l145 746h-205l43 219h266q71 0 113 -47q43 -47 29 -115zM906 0l953 1692h262l-954 -1692h-261zM2400 487l136 697h235l-136 -697h93l-42 -219h-93l-52 -268h-236l53 268h-257q-70 0 -112 46q-43 48 -30 115l255 755h217l-224 -697
h193z" />
    <glyph glyph-name="onehalf" unicode="&#xbd;" horiz-adv-x="2698" 
d="M797 727h205l-42 -219h-645l42 219h205l145 746h-205l43 219h266q71 0 113 -47q43 -47 29 -115zM906 0l953 1692h262l-954 -1692h-261zM2239 219h410l-42 -219h-645l79 406q26 136 132 217q104 79 248 79q47 0 69 15q24 17 33 61l36 187h-175l-35 -181h-235l46 238
q14 68 75 115q60 47 131 47h296q72 0 114 -47q43 -47 29 -115l-47 -244q-26 -136 -132 -217q-104 -79 -248 -79q-48 0 -69 -15q-25 -17 -33 -61z" />
    <glyph glyph-name="threequarters" unicode="&#xbe;" horiz-adv-x="2649" 
d="M870 1473h-175l-35 -181h-235l46 238q14 68 75 115q60 47 131 47h296q72 0 114 -47q43 -47 29 -115l-47 -244q-22 -115 -104 -186q54 -71 32 -186l-48 -245q-13 -67 -74 -114q-60 -47 -132 -47h-296q-71 0 -113 47q-43 47 -30 114l46 239h235l-35 -181h175l37 187
q8 44 -9 61q-17 15 -64 15h-116l43 220h116q47 0 69 15q24 17 33 61zM906 0l953 1692h262l-954 -1692h-261zM2400 487l136 697h235l-136 -697h93l-42 -219h-93l-52 -268h-236l53 268h-257q-70 0 -112 46q-43 48 -30 115l255 755h217l-224 -697h193z" />
    <glyph glyph-name="questiondown" unicode="&#xbf;" horiz-adv-x="1045" 
d="M583 1081q-71 -121 -200 -304q-220 -313 -279 -548h247l50 258h336l-66 -340q-19 -96 -106 -165q-86 -66 -187 -66h-424q-102 0 -162 66q-61 69 -42 165q45 230 146 424q70 133 251 391q42 60 80 119h356zM269 1294l61 313h354l-61 -313h-354z" />
    <glyph glyph-name="Agrave" unicode="&#xc0;" horiz-adv-x="1145" 
d="M585 656h164l58 721zM463 343l-135 -343h-340l657 1692h447l-2 -1692h-341l1 343h-287zM787 1758l-150 310h319l52 -310h-221z" />
    <glyph glyph-name="Aacute" unicode="&#xc1;" horiz-adv-x="1145" 
d="M585 656h164l58 721zM463 343l-135 -343h-340l657 1692h447l-2 -1692h-341l1 343h-287zM720 1758l172 310h319l-270 -310h-221z" />
    <glyph glyph-name="Acircumflex" unicode="&#xc2;" horiz-adv-x="1145" 
d="M585 656h164l58 721zM463 343l-135 -343h-340l657 1692h447l-2 -1692h-341l1 343h-287zM963 1780l-65 145l-122 -145h-212l166 295h395l48 -295h-210z" />
    <glyph glyph-name="Atilde" unicode="&#xc3;" horiz-adv-x="1145" 
d="M585 656h164l58 721zM463 343l-135 -343h-340l657 1692h447l-2 -1692h-341l1 343h-287zM761 1849q-13 10 -28 10q-39 0 -89 -70l-23 -39l-102 77l23 39q80 134 181 186q51 26 97 26q51 0 97 -33l108 -82q13 -10 28 -10q39 0 89 71l23 38l102 -77l-23 -38
q-80 -134 -181 -187q-51 -26 -96 -26q-52 0 -98 35z" />
    <glyph glyph-name="Adieresis" unicode="&#xc4;" horiz-adv-x="1145" 
d="M585 656h164l58 721zM463 343l-135 -343h-340l657 1692h447l-2 -1692h-341l1 343h-287zM825 2034l-48 -248h-281l48 248h281zM1293 2034l-48 -248h-281l48 248h281z" />
    <glyph glyph-name="Aring" unicode="&#xc5;" horiz-adv-x="1145" 
d="M585 656h164l58 721zM929 2007q-38 0 -69.5 -26.5t-39.5 -64.5q-7 -37 14.5 -63.5t59.5 -26.5t69.5 26.5t38.5 63.5q8 38 -13.5 64.5t-59.5 26.5zM900 1692h192l-2 -1692h-341l1 343h-287l-135 -343h-340l657 1692h191q-71 10 -115 65q-54 66 -36 159q19 94 98 160.5
t173 66.5t147 -66.5t34 -160.5q-18 -93 -96 -159q-66 -55 -141 -65z" />
    <glyph glyph-name="AE" unicode="&#xc6;" horiz-adv-x="1626" 
d="M585 656h196l147 758zM709 343h-246l-135 -343h-340l736 1692h1143l-61 -313h-560l-73 -376h466l-61 -314h-466l-72 -376h559l-61 -313h-896z" />
    <glyph glyph-name="Ccedilla" unicode="&#xc7;" horiz-adv-x="1171" 
d="M557 0h-241q-101 0 -161 67q-61 68 -42 164l239 1230q19 96 106 164q86 67 187 67h494q101 0 161 -67q61 -68 42 -164l-66 -340h-336l50 258h-318l-207 -1066h318l50 259h336l-66 -341q-19 -96 -106 -164q-86 -67 -187 -67h-153q24 -14 44 -34q64 -65 46 -156
q-17 -90 -105.5 -154.5t-196.5 -64.5q-107 0 -169 65l87 106q72 -39 108 -39q43 0 78 25.5t42 61.5q7 37 -18 63q-17 16 -84 44z" />
    <glyph glyph-name="Egrave" unicode="&#xc8;" horiz-adv-x="1068" 
d="M481 313h560l-61 -313h-896l329 1692h896l-61 -313h-560l-73 -376h466l-61 -314h-466zM780 1758l-150 310h319l52 -310h-221z" />
    <glyph glyph-name="Eacute" unicode="&#xc9;" horiz-adv-x="1068" 
d="M481 313h560l-61 -313h-896l329 1692h896l-61 -313h-560l-73 -376h466l-61 -314h-466zM713 1758l172 310h319l-270 -310h-221z" />
    <glyph glyph-name="Ecircumflex" unicode="&#xca;" horiz-adv-x="1068" 
d="M481 313h560l-61 -313h-896l329 1692h896l-61 -313h-560l-73 -376h466l-61 -314h-466zM956 1780l-65 145l-122 -145h-212l166 295h395l48 -295h-210z" />
    <glyph glyph-name="Edieresis" unicode="&#xcb;" horiz-adv-x="1068" 
d="M481 313h560l-61 -313h-896l329 1692h896l-61 -313h-560l-73 -376h466l-61 -314h-466zM818 2034l-48 -248h-281l48 248h281zM1286 2034l-48 -248h-281l48 248h281z" />
    <glyph glyph-name="Igrave" unicode="&#xcc;" horiz-adv-x="604" 
d="M84 0l329 1692h336l-329 -1692h-336zM500 1758l-150 310h319l52 -310h-221z" />
    <glyph glyph-name="Iacute" unicode="&#xcd;" horiz-adv-x="604" 
d="M84 0l329 1692h336l-329 -1692h-336zM433 1758l172 310h319l-270 -310h-221z" />
    <glyph glyph-name="Icircumflex" unicode="&#xce;" horiz-adv-x="604" 
d="M84 0l329 1692h336l-329 -1692h-336zM676 1780l-65 145l-122 -145h-212l166 295h395l48 -295h-210z" />
    <glyph glyph-name="Idieresis" unicode="&#xcf;" horiz-adv-x="604" 
d="M84 0l329 1692h336l-329 -1692h-336zM538 2034l-48 -248h-281l48 248h281zM1006 2034l-48 -248h-281l48 248h281z" />
    <glyph glyph-name="Eth" unicode="&#xd0;" horiz-adv-x="1232" 
d="M269 953l144 739h742q101 0 161 -67q61 -68 42 -164l-202 -1038q-37 -194 -208 -312q-161 -111 -369 -111h-495l144 740h-90l41 213h90zM605 953h176l-41 -213h-176l-83 -427h159q159 0 180 110l186 956h-318z" />
    <glyph glyph-name="Ntilde" unicode="&#xd1;" horiz-adv-x="1345" 
d="M632 1090l-212 -1090h-336l329 1692h466l62 -1095l213 1095h336l-329 -1692h-465zM845 1849q-13 10 -28 10q-39 0 -89 -70l-23 -39l-102 77l23 39q80 134 181 186q51 26 97 26q51 0 97 -33l108 -82q13 -10 28 -10q39 0 89 71l23 38l102 -77l-23 -38q-80 -134 -181 -187
q-51 -26 -96 -26q-52 0 -98 35z" />
    <glyph glyph-name="Ograve" unicode="&#xd2;" horiz-adv-x="1235" 
d="M672 1379l-207 -1066h318l207 1066h-318zM1139 1692q101 0 161 -67q61 -68 42 -164l-239 -1230q-19 -96 -106 -164q-86 -67 -187 -67h-494q-101 0 -161 67q-61 68 -42 164l239 1230q19 96 106 164q86 67 187 67h494zM811 1758l-150 310h319l52 -310h-221z" />
    <glyph glyph-name="Oacute" unicode="&#xd3;" horiz-adv-x="1235" 
d="M672 1379l-207 -1066h318l207 1066h-318zM1139 1692q101 0 161 -67q61 -68 42 -164l-239 -1230q-19 -96 -106 -164q-86 -67 -187 -67h-494q-101 0 -161 67q-61 68 -42 164l239 1230q19 96 106 164q86 67 187 67h494zM744 1758l172 310h319l-270 -310h-221z" />
    <glyph glyph-name="Ocircumflex" unicode="&#xd4;" horiz-adv-x="1235" 
d="M672 1379l-207 -1066h318l207 1066h-318zM1139 1692q101 0 161 -67q61 -68 42 -164l-239 -1230q-19 -96 -106 -164q-86 -67 -187 -67h-494q-101 0 -161 67q-61 68 -42 164l239 1230q19 96 106 164q86 67 187 67h494zM987 1780l-65 145l-122 -145h-212l166 295h395
l48 -295h-210z" />
    <glyph glyph-name="Otilde" unicode="&#xd5;" horiz-adv-x="1235" 
d="M672 1379l-207 -1066h318l207 1066h-318zM1139 1692q101 0 161 -67q61 -68 42 -164l-239 -1230q-19 -96 -106 -164q-86 -67 -187 -67h-494q-101 0 -161 67q-61 68 -42 164l239 1230q19 96 106 164q86 67 187 67h494zM785 1849q-13 10 -28 10q-39 0 -89 -70l-23 -39
l-102 77l23 39q80 134 181 186q51 26 97 26q51 0 97 -33l108 -82q13 -10 28 -10q39 0 89 71l23 38l102 -77l-23 -38q-80 -134 -181 -187q-51 -26 -96 -26q-52 0 -98 35z" />
    <glyph glyph-name="Odieresis" unicode="&#xd6;" horiz-adv-x="1235" 
d="M672 1379l-207 -1066h318l207 1066h-318zM1139 1692q101 0 161 -67q61 -68 42 -164l-239 -1230q-19 -96 -106 -164q-86 -67 -187 -67h-494q-101 0 -161 67q-61 68 -42 164l239 1230q19 96 106 164q86 67 187 67h494zM849 2034l-48 -248h-281l48 248h281zM1317 2034
l-48 -248h-281l48 248h281z" />
    <glyph glyph-name="multiply" unicode="&#xd7;" horiz-adv-x="1122" 
d="M779 1124l276 231l162 -200l-276 -231l186 -231l-238 -200l-187 232l-276 -232l-161 200l276 232l-185 230l237 200z" />
    <glyph glyph-name="Oslash" unicode="&#xd8;" horiz-adv-x="1235" 
d="M665 313h118l207 1066h-10zM504 516l256 863h-88zM572 0l-69 -234h-220l69 234h-36q-101 0 -161 67q-61 68 -42 164l239 1230q19 96 106 164q86 67 187 67h207l52 175h221l-52 -175h66q101 0 161 -67q61 -68 42 -164l-239 -1230q-19 -96 -106 -164q-86 -67 -187 -67h-238
z" />
    <glyph glyph-name="Ugrave" unicode="&#xd9;" horiz-adv-x="1242" 
d="M469 313h318l268 1379h336l-284 -1461q-19 -96 -106 -164q-86 -67 -187 -67h-494q-101 0 -161 67q-61 68 -42 164l284 1461h336zM815 1758l-150 310h319l52 -310h-221z" />
    <glyph glyph-name="Uacute" unicode="&#xda;" horiz-adv-x="1242" 
d="M469 313h318l268 1379h336l-284 -1461q-19 -96 -106 -164q-86 -67 -187 -67h-494q-101 0 -161 67q-61 68 -42 164l284 1461h336zM748 1758l172 310h319l-270 -310h-221z" />
    <glyph glyph-name="Ucircumflex" unicode="&#xdb;" horiz-adv-x="1242" 
d="M469 313h318l268 1379h336l-284 -1461q-19 -96 -106 -164q-86 -67 -187 -67h-494q-101 0 -161 67q-61 68 -42 164l284 1461h336zM991 1780l-65 145l-122 -145h-212l166 295h395l48 -295h-210z" />
    <glyph glyph-name="Udieresis" unicode="&#xdc;" horiz-adv-x="1242" 
d="M469 313h318l268 1379h336l-284 -1461q-19 -96 -106 -164q-86 -67 -187 -67h-494q-101 0 -161 67q-61 68 -42 164l284 1461h336zM853 2034l-48 -248h-281l48 248h281zM1321 2034l-48 -248h-281l48 248h281z" />
    <glyph glyph-name="Yacute" unicode="&#xdd;" horiz-adv-x="1011" 
d="M762 579l-113 -579h-336l112 578l-136 1114h343q26 -247 19 -810q215 563 336 810h343zM662 1758l172 310h319l-270 -310h-221z" />
    <glyph glyph-name="Thorn" unicode="&#xde;" horiz-adv-x="1162" 
d="M715 1310l-86 -440h151q151 0 171 104l66 336h-302zM771 1607h387q96 0 153 -63q58 -65 41 -156l-81 -414q-35 -184 -198 -296q-153 -105 -351 -105h-151l-156 -805h-319l399 2056h319z" />
    <glyph glyph-name="germandbls" unicode="&#xdf;" horiz-adv-x="1219" 
d="M1139 332q-38 -194 -209 -312q-94 -65 -215 -65q-87 0 -186 33l61 313q80 -33 130 -33q70 0 83 64l48 248q16 85 -103.5 97t-93.5 157l1 5q27 140 132 154q106 13 126 119l31 157q20 103 -118 110q-139 -7 -159 -110l-247 -1269h-336l247 1269q37 194 208 312
q187 109 350 109q164 0 303 -109q125 -118 88 -312l-31 -157q-30 -153 -158 -250q131 -100 96 -282z" />
    <glyph glyph-name="agrave" unicode="&#xe0;" horiz-adv-x="1132" 
d="M606 623h155l55 685zM490 326l-128 -326h-323l624 1607h424l-1 -1607h-324v326h-272zM810 1673l-150 310h319l52 -310h-221z" />
    <glyph glyph-name="aacute" unicode="&#xe1;" horiz-adv-x="1132" 
d="M606 623h155l55 685zM490 326l-128 -326h-323l624 1607h424l-1 -1607h-324v326h-272zM744 1673l172 310h319l-270 -310h-221z" />
    <glyph glyph-name="acircumflex" unicode="&#xe2;" horiz-adv-x="1132" 
d="M606 623h155l55 685zM490 326l-128 -326h-323l624 1607h424l-1 -1607h-324v326h-272zM986 1695l-65 145l-122 -145h-212l166 295h395l48 -295h-210z" />
    <glyph glyph-name="atilde" unicode="&#xe3;" horiz-adv-x="1132" 
d="M606 623h155l55 685zM490 326l-128 -326h-323l624 1607h424l-1 -1607h-324v326h-272zM785 1764q-13 10 -28 10q-39 0 -89 -70l-23 -39l-102 77l23 39q80 134 181 186q51 26 97 26q51 0 97 -33l108 -82q13 -10 28 -10q39 0 89 71l23 38l102 -77l-23 -38
q-80 -134 -181 -187q-51 -26 -96 -26q-52 0 -98 35z" />
    <glyph glyph-name="adieresis" unicode="&#xe4;" horiz-adv-x="1132" 
d="M606 623h155l55 685zM490 326l-128 -326h-323l624 1607h424l-1 -1607h-324v326h-272zM848 1949l-48 -248h-281l48 248h281zM1316 1949l-48 -248h-281l48 248h281z" />
    <glyph glyph-name="aring" unicode="&#xe5;" horiz-adv-x="1132" 
d="M606 623h155l55 685zM937 1922q-38 0 -70 -26.5t-39 -64.5q-7 -37 14 -63.5t59 -26.5q37 0 69 26.5t39 63.5q7 38 -14 64.5t-58 26.5zM907 1607h180l-1 -1607h-324v326h-272l-128 -326h-323l624 1607h180q-71 10 -115 65q-53 66 -35 159q18 94 97 160.5t173 66.5
t147 -66.5t35 -160.5q-18 -93 -97 -159q-66 -55 -141 -65z" />
    <glyph glyph-name="ae" unicode="&#xe6;" horiz-adv-x="1548" 
d="M555 623h186l140 720zM672 326h-233l-128 -326h-323l699 1607h1086l-57 -297h-532l-70 -357h442l-58 -298h-442l-69 -358h532l-58 -297h-852z" />
    <glyph glyph-name="ccedilla" unicode="&#xe7;" horiz-adv-x="1179" 
d="M589 0h-229q-96 0 -154 64q-57 64 -39 155l227 1169q17 91 100 156q82 63 178 63h469q96 0 153 -63q58 -65 41 -156l-63 -323h-320l48 245h-302l-197 -1013h302l48 246h320l-63 -324q-18 -91 -102 -155q-81 -64 -177 -64h-141q25 -14 45 -34q63 -65 45 -156
q-17 -90 -105.5 -154.5t-195.5 -64.5q-108 0 -170 65l88 106q71 -39 108 -39q42 0 77.5 25.5t42.5 61.5q7 37 -18 63q-18 16 -85 44z" />
    <glyph glyph-name="egrave" unicode="&#xe8;" horiz-adv-x="1084" 
d="M516 297h532l-58 -297h-851l312 1607h851l-57 -297h-532l-70 -357h443l-58 -298h-443zM812 1673l-150 310h319l52 -310h-221z" />
    <glyph glyph-name="eacute" unicode="&#xe9;" horiz-adv-x="1084" 
d="M516 297h532l-58 -297h-851l312 1607h851l-57 -297h-532l-70 -357h443l-58 -298h-443zM746 1673l172 310h319l-270 -310h-221z" />
    <glyph glyph-name="ecircumflex" unicode="&#xea;" horiz-adv-x="1084" 
d="M516 297h532l-58 -297h-851l312 1607h851l-57 -297h-532l-70 -357h443l-58 -298h-443zM988 1695l-65 145l-122 -145h-212l166 295h395l48 -295h-210z" />
    <glyph glyph-name="edieresis" unicode="&#xeb;" horiz-adv-x="1084" 
d="M516 297h532l-58 -297h-851l312 1607h851l-57 -297h-532l-70 -357h443l-58 -298h-443zM850 1949l-48 -248h-281l48 248h281zM1318 1949l-48 -248h-281l48 248h281z" />
    <glyph glyph-name="igrave" unicode="&#xec;" horiz-adv-x="636" 
d="M140 0l312 1607h319l-312 -1607h-319zM547 1673l-150 310h319l52 -310h-221z" />
    <glyph glyph-name="iacute" unicode="&#xed;" horiz-adv-x="636" 
d="M140 0l312 1607h319l-312 -1607h-319zM481 1673l172 310h319l-270 -310h-221z" />
    <glyph glyph-name="icircumflex" unicode="&#xee;" horiz-adv-x="636" 
d="M140 0l312 1607h319l-312 -1607h-319zM723 1695l-65 145l-122 -145h-212l166 295h395l48 -295h-210z" />
    <glyph glyph-name="idieresis" unicode="&#xef;" horiz-adv-x="636" 
d="M140 0l312 1607h319l-312 -1607h-319zM585 1949l-48 -248h-281l48 248h281zM1053 1949l-48 -248h-281l48 248h281z" />
    <glyph glyph-name="eth" unicode="&#xf0;" horiz-adv-x="1302" 
d="M895 551q12 62 -13 87q-23 22 -91 22q-67 0 -98 -22q-35 -25 -47 -87l-46 -238h249zM893 1356q-69 79 -190 109l119 227q270 -60 389 -253l226 59l17 -213l-168 -44q41 -199 -14 -481l-84 -430q-38 -195 -125 -263q-86 -67 -187 -67h-424q-102 0 -162 67q-61 68 -42 164
l62 320q45 233 232 339q92 53 189 53q111 0 227 -70q32 166 15 287l-311 -81l-17 213z" />
    <glyph glyph-name="ntilde" unicode="&#xf1;" horiz-adv-x="1340" 
d="M660 1035l-201 -1035h-319l312 1607h443l59 -1040l202 1040h319l-312 -1607h-442zM874 1764q-13 10 -28 10q-39 0 -89 -70l-23 -39l-102 77l23 39q80 134 181 186q51 26 97 26q51 0 97 -33l108 -82q13 -10 28 -10q39 0 89 71l23 38l102 -77l-23 -38q-80 -134 -181 -187
q-51 -26 -96 -26q-52 0 -98 35z" />
    <glyph glyph-name="ograve" unicode="&#xf2;" horiz-adv-x="1233" 
d="M698 1310l-197 -1013h302l197 1013h-302zM1141 1607q96 0 153 -63q58 -65 41 -156l-227 -1169q-18 -91 -102 -155q-81 -64 -177 -64h-469q-96 0 -154 64q-57 64 -39 155l227 1169q17 91 100 156q82 63 178 63h469zM842 1673l-150 310h319l52 -310h-221z" />
    <glyph glyph-name="oacute" unicode="&#xf3;" horiz-adv-x="1233" 
d="M698 1310l-197 -1013h302l197 1013h-302zM1141 1607q96 0 153 -63q58 -65 41 -156l-227 -1169q-18 -91 -102 -155q-81 -64 -177 -64h-469q-96 0 -154 64q-57 64 -39 155l227 1169q17 91 100 156q82 63 178 63h469zM776 1673l172 310h319l-270 -310h-221z" />
    <glyph glyph-name="ocircumflex" unicode="&#xf4;" horiz-adv-x="1233" 
d="M698 1310l-197 -1013h302l197 1013h-302zM1141 1607q96 0 153 -63q58 -65 41 -156l-227 -1169q-18 -91 -102 -155q-81 -64 -177 -64h-469q-96 0 -154 64q-57 64 -39 155l227 1169q17 91 100 156q82 63 178 63h469zM1018 1695l-65 145l-122 -145h-212l166 295h395l48 -295
h-210z" />
    <glyph glyph-name="otilde" unicode="&#xf5;" horiz-adv-x="1233" 
d="M698 1310l-197 -1013h302l197 1013h-302zM1141 1607q96 0 153 -63q58 -65 41 -156l-227 -1169q-18 -91 -102 -155q-81 -64 -177 -64h-469q-96 0 -154 64q-57 64 -39 155l227 1169q17 91 100 156q82 63 178 63h469zM817 1764q-13 10 -28 10q-39 0 -89 -70l-23 -39l-102 77
l23 39q80 134 181 186q51 26 97 26q51 0 97 -33l108 -82q13 -10 28 -10q39 0 89 71l23 38l102 -77l-23 -38q-80 -134 -181 -187q-51 -26 -96 -26q-52 0 -98 35z" />
    <glyph glyph-name="odieresis" unicode="&#xf6;" horiz-adv-x="1233" 
d="M698 1310l-197 -1013h302l197 1013h-302zM1141 1607q96 0 153 -63q58 -65 41 -156l-227 -1169q-18 -91 -102 -155q-81 -64 -177 -64h-469q-96 0 -154 64q-57 64 -39 155l227 1169q17 91 100 156q82 63 178 63h469zM880 1949l-48 -248h-281l48 248h281zM1348 1949
l-48 -248h-281l48 248h281z" />
    <glyph glyph-name="divide" unicode="&#xf7;" horiz-adv-x="1236" 
d="M1238 783h-936l55 283h936zM856 590l-61 -313h-354l61 313h354zM1047 1572l-61 -313h-354l61 313h354z" />
    <glyph glyph-name="oslash" unicode="&#xf8;" horiz-adv-x="1233" 
d="M698 1310l-197 -1013h302l197 1013h-302zM852 1607l41 124h270l-42 -124h20q96 0 153 -63q58 -65 41 -156l-227 -1169q-18 -91 -102 -155q-81 -64 -177 -64h-202l-40 -119h-268l39 119q-95 1 -152 64q-57 64 -39 155l227 1169q17 91 100 156q82 63 178 63h180z" />
    <glyph glyph-name="ugrave" unicode="&#xf9;" horiz-adv-x="1246" 
d="M509 297h302l254 1310h320l-269 -1388q-18 -91 -102 -155q-81 -64 -177 -64h-469q-96 0 -154 64q-57 64 -39 155l269 1388h319zM850 1673l-150 310h319l52 -310h-221z" />
    <glyph glyph-name="uacute" unicode="&#xfa;" horiz-adv-x="1246" 
d="M509 297h302l254 1310h320l-269 -1388q-18 -91 -102 -155q-81 -64 -177 -64h-469q-96 0 -154 64q-57 64 -39 155l269 1388h319zM784 1673l172 310h319l-270 -310h-221z" />
    <glyph glyph-name="ucircumflex" unicode="&#xfb;" horiz-adv-x="1246" 
d="M509 297h302l254 1310h320l-269 -1388q-18 -91 -102 -155q-81 -64 -177 -64h-469q-96 0 -154 64q-57 64 -39 155l269 1388h319zM1026 1695l-65 145l-122 -145h-212l166 295h395l48 -295h-210z" />
    <glyph glyph-name="udieresis" unicode="&#xfc;" horiz-adv-x="1246" 
d="M509 297h302l254 1310h320l-269 -1388q-18 -91 -102 -155q-81 -64 -177 -64h-469q-96 0 -154 64q-57 64 -39 155l269 1388h319zM888 1949l-48 -248h-281l48 248h281zM1356 1949l-48 -248h-281l48 248h281z" />
    <glyph glyph-name="yacute" unicode="&#xfd;" horiz-adv-x="1013" 
d="M770 550l-107 -550h-320l107 549l-130 1058h326q25 -234 19 -769q204 535 318 769h326zM684 1673l172 310h319l-270 -310h-221z" />
    <glyph glyph-name="thorn" unicode="&#xfe;" horiz-adv-x="1162" 
d="M715 1310l-86 -440h151q151 0 171 104l66 336h-302zM771 1607h387q96 0 153 -63q58 -65 41 -156l-81 -414q-35 -184 -198 -296q-153 -105 -351 -105h-151l-156 -805h-319l399 2056h319z" />
    <glyph glyph-name="ydieresis" unicode="&#xff;" horiz-adv-x="1013" 
d="M770 550l-107 -550h-320l107 549l-130 1058h326q25 -234 19 -769q204 535 318 769h326zM788 1949l-48 -248h-281l48 248h281zM1256 1949l-48 -248h-281l48 248h281z" />
    <glyph glyph-name="Amacron" unicode="&#x100;" horiz-adv-x="1145" 
d="M585 656h164l58 721zM463 343l-135 -343h-340l657 1692h447l-2 -1692h-341l1 343h-287zM1176 2030l-42 -215h-517l42 215h517z" />
    <glyph glyph-name="amacron" unicode="&#x101;" horiz-adv-x="1132" 
d="M606 623h155l55 685zM490 326l-128 -326h-323l624 1607h424l-1 -1607h-324v326h-272zM1199 1945l-42 -215h-517l42 215h517z" />
    <glyph glyph-name="Abreve" unicode="&#x102;" horiz-adv-x="1145" 
d="M585 656h164l58 721zM463 343l-135 -343h-340l657 1692h447l-2 -1692h-341l1 343h-287zM1231 2075q-164 -295 -361 -295q-198 0 -248 295h212q30 -89 76 -89q47 0 111 89h210z" />
    <glyph glyph-name="abreve" unicode="&#x103;" horiz-adv-x="1132" 
d="M606 623h155l55 685zM490 326l-128 -326h-323l624 1607h424l-1 -1607h-324v326h-272zM1254 1990q-164 -295 -361 -295q-198 0 -248 295h212q30 -89 76 -89q47 0 111 89h210z" />
    <glyph glyph-name="Aogonek" unicode="&#x104;" horiz-adv-x="1145" 
d="M585 656h164l58 721zM955 0h-206l1 343h-287l-135 -343h-340l657 1692h447l-2 -1692l3 -76q-90 -25 -121 -49q-36 -27 -47 -64q-2 -5 -3 -10q-6 -30 12 -51q20 -22 55 -22h6q28 2 105 30l3 -116q-71 -43 -148 -48h-15q-89 0 -136 56q-45 52 -30 128q2 12 7 24
q26 92 117 161q28 22 57 37z" />
    <glyph glyph-name="aogonek" unicode="&#x105;" horiz-adv-x="1132" 
d="M606 623h155l55 685zM952 0h-190v326h-272l-128 -326h-323l624 1607h424l-1 -1584l4 -99q-90 -25 -121 -49q-36 -27 -47 -64q-2 -5 -3 -10q-6 -30 12 -51q20 -22 55 -22h6q28 2 105 30l3 -116q-71 -43 -148 -48h-15q-89 0 -136 56q-45 52 -30 128q2 12 7 24
q26 92 117 161q28 22 57 37z" />
    <glyph glyph-name="Cacute" unicode="&#x106;" horiz-adv-x="1171" 
d="M990 1379h-318l-207 -1066h318l50 259h336l-66 -341q-19 -96 -106 -164q-86 -67 -187 -67h-494q-101 0 -161 67q-61 68 -42 164l239 1230q19 96 106 164q86 67 187 67h494q101 0 161 -67q61 -68 42 -164l-66 -340h-336zM744 1758l172 310h319l-270 -310h-221z" />
    <glyph glyph-name="cacute" unicode="&#x107;" horiz-adv-x="1179" 
d="M1000 1310h-302l-197 -1013h302l48 246h320l-63 -324q-18 -91 -102 -155q-81 -64 -177 -64h-469q-96 0 -154 64q-57 64 -39 155l227 1169q17 91 100 156q82 63 178 63h469q96 0 153 -63q58 -65 41 -156l-63 -323h-320zM776 1673l172 310h319l-270 -310h-221z" />
    <glyph glyph-name="Ccircumflex" unicode="&#x108;" horiz-adv-x="1171" 
d="M990 1379h-318l-207 -1066h318l50 259h336l-66 -341q-19 -96 -106 -164q-86 -67 -187 -67h-494q-101 0 -161 67q-61 68 -42 164l239 1230q19 96 106 164q86 67 187 67h494q101 0 161 -67q61 -68 42 -164l-66 -340h-336zM987 1780l-65 145l-122 -145h-212l166 295h395
l48 -295h-210z" />
    <glyph glyph-name="ccircumflex" unicode="&#x109;" horiz-adv-x="1179" 
d="M1000 1310h-302l-197 -1013h302l48 246h320l-63 -324q-18 -91 -102 -155q-81 -64 -177 -64h-469q-96 0 -154 64q-57 64 -39 155l227 1169q17 91 100 156q82 63 178 63h469q96 0 153 -63q58 -65 41 -156l-63 -323h-320zM1018 1695l-65 145l-122 -145h-212l166 295h395
l48 -295h-210z" />
    <glyph glyph-name="Cdotaccent" unicode="&#x10a;" horiz-adv-x="1171" 
d="M990 1379h-318l-207 -1066h318l50 259h336l-66 -341q-19 -96 -106 -164q-86 -67 -187 -67h-494q-101 0 -161 67q-61 68 -42 164l239 1230q19 96 106 164q86 67 187 67h494q101 0 161 -67q61 -68 42 -164l-66 -340h-336zM1083 2034l-43 -220h-281l43 220h281z" />
    <glyph glyph-name="cdotaccent" unicode="&#x10b;" horiz-adv-x="1179" 
d="M1000 1310h-302l-197 -1013h302l48 246h320l-63 -324q-18 -91 -102 -155q-81 -64 -177 -64h-469q-96 0 -154 64q-57 64 -39 155l227 1169q17 91 100 156q82 63 178 63h469q96 0 153 -63q58 -65 41 -156l-63 -323h-320zM1114 1949l-43 -220h-281l43 220h281z" />
    <glyph glyph-name="Ccaron" unicode="&#x10c;" horiz-adv-x="1171" 
d="M990 1379h-318l-207 -1066h318l50 259h336l-66 -341q-19 -96 -106 -164q-86 -67 -187 -67h-494q-101 0 -161 67q-61 68 -42 164l239 1230q19 96 106 164q86 67 187 67h494q101 0 161 -67q61 -68 42 -164l-66 -340h-336zM1255 2075l-164 -295h-395l-50 295h212l65 -145
l122 145h210z" />
    <glyph glyph-name="ccaron" unicode="&#x10d;" horiz-adv-x="1179" 
d="M1000 1310h-302l-197 -1013h302l48 246h320l-63 -324q-18 -91 -102 -155q-81 -64 -177 -64h-469q-96 0 -154 64q-57 64 -39 155l227 1169q17 91 100 156q82 63 178 63h469q96 0 153 -63q58 -65 41 -156l-63 -323h-320zM1286 1990l-164 -295h-395l-50 295h212l65 -145
l122 145h210z" />
    <glyph glyph-name="Dcaron" unicode="&#x10e;" horiz-adv-x="1240" 
d="M688 1379l-207 -1066h159q159 0 180 110l186 956h-318zM413 1692h742q101 0 161 -67q61 -68 42 -164l-202 -1038q-37 -194 -208 -312q-161 -111 -369 -111h-495zM1271 2075l-164 -295h-395l-50 295h212l65 -145l122 145h210z" />
    <glyph glyph-name="dcaron" unicode="&#x10f;" horiz-adv-x="1786" 
d="M713 1310l-197 -1013h151q151 0 171 105l177 908h-302zM451 1607h705q96 0 153 -63q58 -65 41 -156l-192 -986q-36 -184 -199 -297q-152 -105 -350 -105h-470zM1848 1607l-42 -219l-223 -248l48 248h-73l42 219h248z" />
    <glyph glyph-name="Dcroat" unicode="&#x110;" horiz-adv-x="1232" 
d="M269 953l144 739h742q101 0 161 -67q61 -68 42 -164l-202 -1038q-37 -194 -208 -312q-161 -111 -369 -111h-495l144 740h-90l41 213h90zM605 953h176l-41 -213h-176l-83 -427h159q159 0 180 110l186 956h-318z" />
    <glyph glyph-name="dcroat" unicode="&#x111;" horiz-adv-x="1178" 
d="M255 905l137 702h705q96 0 153 -63q58 -65 40 -156l-192 -986q-36 -184 -198 -297q-153 -105 -350 -105h-470l136 703h-85l39 202h85zM575 905h167l-39 -202h-168l-79 -406h152q151 0 171 105l176 908h-302z" />
    <glyph glyph-name="Emacron" unicode="&#x112;" horiz-adv-x="1068" 
d="M481 313h560l-61 -313h-896l329 1692h896l-61 -313h-560l-73 -376h466l-61 -314h-466zM1169 2030l-42 -215h-517l42 215h517z" />
    <glyph glyph-name="emacron" unicode="&#x113;" horiz-adv-x="1084" 
d="M516 297h532l-58 -297h-851l312 1607h851l-57 -297h-532l-70 -357h443l-58 -298h-443zM1201 1945l-42 -215h-517l42 215h517z" />
    <glyph glyph-name="Ebreve" unicode="&#x114;" horiz-adv-x="1068" 
d="M481 313h560l-61 -313h-896l329 1692h896l-61 -313h-560l-73 -376h466l-61 -314h-466zM1224 2075q-164 -295 -361 -295q-198 0 -248 295h212q30 -89 76 -89q47 0 111 89h210z" />
    <glyph glyph-name="ebreve" unicode="&#x115;" horiz-adv-x="1084" 
d="M516 297h532l-58 -297h-851l312 1607h851l-57 -297h-532l-70 -357h443l-58 -298h-443zM1256 1990q-164 -295 -361 -295q-198 0 -248 295h212q30 -89 76 -89q47 0 111 89h210z" />
    <glyph glyph-name="Edotaccent" unicode="&#x116;" horiz-adv-x="1068" 
d="M481 313h560l-61 -313h-896l329 1692h896l-61 -313h-560l-73 -376h466l-61 -314h-466zM1052 2034l-43 -220h-281l43 220h281z" />
    <glyph glyph-name="edotaccent" unicode="&#x117;" horiz-adv-x="1084" 
d="M516 297h532l-58 -297h-851l312 1607h851l-57 -297h-532l-70 -357h443l-58 -298h-443zM1084 1949l-43 -220h-281l43 220h281z" />
    <glyph glyph-name="Eogonek" unicode="&#x118;" horiz-adv-x="1068" 
d="M845 0h-761l329 1692h896l-61 -313h-560l-73 -376h466l-61 -314h-466l-73 -376h560l-61 -313l3 -76q-90 -25 -121 -49q-36 -27 -47 -64q-2 -5 -3 -10q-6 -30 12 -51q20 -22 55 -22h6q28 2 105 30l3 -116q-71 -43 -148 -48h-15q-89 0 -136 56q-45 52 -30 128q2 12 7 24
q26 92 117 161q28 22 57 37z" />
    <glyph glyph-name="eogonek" unicode="&#x119;" horiz-adv-x="1084" 
d="M749 0h-610l312 1607h851l-57 -297h-532l-70 -357h443l-58 -298h-443l-69 -358h532l-58 -297h-4q-87 -24 -118 -48q-36 -27 -47 -64q-2 -5 -3 -10q-6 -30 12 -51q20 -22 55 -22h6q27 2 105 30l3 -116q-71 -43 -148 -48h-15q-89 0 -136 56q-45 52 -30 128q2 12 6 24
q20 67 73 121z" />
    <glyph glyph-name="Ecaron" unicode="&#x11a;" horiz-adv-x="1068" 
d="M481 313h560l-61 -313h-896l329 1692h896l-61 -313h-560l-73 -376h466l-61 -314h-466zM1224 2075l-164 -295h-395l-50 295h212l65 -145l122 145h210z" />
    <glyph glyph-name="ecaron" unicode="&#x11b;" horiz-adv-x="1084" 
d="M516 297h532l-58 -297h-851l312 1607h851l-57 -297h-532l-70 -357h443l-58 -298h-443zM1256 1990l-164 -295h-395l-50 295h212l65 -145l122 145h210z" />
    <glyph glyph-name="Gcircumflex" unicode="&#x11c;" horiz-adv-x="1200" 
d="M839 603h-159l61 313h495l-133 -685q-19 -96 -106 -164q-86 -67 -187 -67h-494q-101 0 -161 67q-61 68 -42 164l239 1230q19 96 106 164q86 67 187 67h494q101 0 161 -67q61 -68 42 -164l-66 -340h-336l50 258h-318l-207 -1066h318zM987 1780l-65 145l-122 -145h-212
l166 295h395l48 -295h-210z" />
    <glyph glyph-name="gcircumflex" unicode="&#x11d;" horiz-adv-x="1209" 
d="M856 573h-151l58 297h471l-126 -651q-18 -91 -102 -155q-81 -64 -177 -64h-469q-96 0 -154 64q-57 64 -39 155l227 1169q17 91 100 156q82 63 178 63h469q96 0 153 -63q58 -65 41 -156l-63 -323h-320l48 245h-302l-197 -1013h302zM1018 1695l-65 145l-122 -145h-212
l166 295h395l48 -295h-210z" />
    <glyph glyph-name="Gbreve" unicode="&#x11e;" horiz-adv-x="1200" 
d="M839 603h-159l61 313h495l-133 -685q-19 -96 -106 -164q-86 -67 -187 -67h-494q-101 0 -161 67q-61 68 -42 164l239 1230q19 96 106 164q86 67 187 67h494q101 0 161 -67q61 -68 42 -164l-66 -340h-336l50 258h-318l-207 -1066h318zM1255 2075q-164 -295 -361 -295
q-198 0 -248 295h212q30 -89 76 -89q47 0 111 89h210z" />
    <glyph glyph-name="gbreve" unicode="&#x11f;" horiz-adv-x="1209" 
d="M856 573h-151l58 297h471l-126 -651q-18 -91 -102 -155q-81 -64 -177 -64h-469q-96 0 -154 64q-57 64 -39 155l227 1169q17 91 100 156q82 63 178 63h469q96 0 153 -63q58 -65 41 -156l-63 -323h-320l48 245h-302l-197 -1013h302zM1286 1990q-164 -295 -361 -295
q-198 0 -248 295h212q30 -89 76 -89q47 0 111 89h210z" />
    <glyph glyph-name="Gdotaccent" unicode="&#x120;" horiz-adv-x="1200" 
d="M839 603h-159l61 313h495l-133 -685q-19 -96 -106 -164q-86 -67 -187 -67h-494q-101 0 -161 67q-61 68 -42 164l239 1230q19 96 106 164q86 67 187 67h494q101 0 161 -67q61 -68 42 -164l-66 -340h-336l50 258h-318l-207 -1066h318zM1083 2034l-43 -220h-281l43 220h281z
" />
    <glyph glyph-name="gdotaccent" unicode="&#x121;" horiz-adv-x="1209" 
d="M856 573h-151l58 297h471l-126 -651q-18 -91 -102 -155q-81 -64 -177 -64h-469q-96 0 -154 64q-57 64 -39 155l227 1169q17 91 100 156q82 63 178 63h469q96 0 153 -63q58 -65 41 -156l-63 -323h-320l48 245h-302l-197 -1013h302zM1114 1949l-43 -220h-281l43 220h281z
" />
    <glyph glyph-name="uni0122" unicode="&#x122;" horiz-adv-x="1200" 
d="M839 603h-159l61 313h495l-133 -685q-19 -96 -106 -164q-86 -67 -187 -67h-494q-101 0 -161 67q-61 68 -42 164l239 1230q19 96 106 164q86 67 187 67h494q101 0 161 -67q61 -68 42 -164l-66 -340h-336l50 258h-318l-207 -1066h318zM701 -13l-36 -188l-241 -212l41 212
h-83l36 188h283z" />
    <glyph glyph-name="uni0123" unicode="&#x123;" horiz-adv-x="1209" 
d="M856 573h-151l58 297h471l-126 -651q-18 -91 -102 -155q-81 -64 -177 -64h-469q-96 0 -154 64q-57 64 -39 155l227 1169q17 91 100 156q82 63 178 63h469q96 0 153 -63q58 -65 41 -156l-63 -323h-320l48 245h-302l-197 -1013h302zM824 1816l43 219l223 248l-48 -248h73
l-43 -219h-248z" />
    <glyph glyph-name="Hcircumflex" unicode="&#x124;" horiz-adv-x="1258" 
d="M554 689l-134 -689h-336l329 1692h336l-134 -689h318l134 689h336l-329 -1692h-336l134 689h-318zM1003 1780l-65 145l-122 -145h-212l166 295h395l48 -295h-210z" />
    <glyph glyph-name="hcircumflex" unicode="&#x125;" horiz-adv-x="1258" 
d="M586 655l-127 -655h-319l312 1607h319l-127 -654h302l127 654h320l-312 -1607h-320l127 655h-302zM1034 1827l-65 145l-122 -145h-212l166 295h395l48 -295h-210z" />
    <glyph glyph-name="Hbar" unicode="&#x126;" horiz-adv-x="1258" 
d="M1363 1279l-249 -1279h-336l134 689h-318l-134 -689h-336l249 1279h-70l41 213h70l39 200h336l-39 -200h318l39 200h336l-39 -200h77l-41 -213h-77zM709 1279l-54 -276h318l54 276h-318z" />
    <glyph glyph-name="hbar" unicode="&#x127;" horiz-adv-x="1201" 
d="M1296 1215l-236 -1215h-319l127 655h-302l-127 -655h-319l236 1215h-67l40 202h66l37 190h319l-37 -190h302l37 190h319l-36 -190h73l-40 -202h-73zM675 1215l-51 -262h302l51 262h-302z" />
    <glyph glyph-name="Itilde" unicode="&#x128;" horiz-adv-x="604" 
d="M84 0l329 1692h336l-329 -1692h-336zM474 1849q-13 10 -28 10q-39 0 -89 -70l-23 -39l-102 77l23 39q80 134 181 186q51 26 97 26q51 0 97 -33l108 -82q13 -10 28 -10q39 0 89 71l23 38l102 -77l-23 -38q-80 -134 -181 -187q-51 -26 -96 -26q-52 0 -98 35z" />
    <glyph glyph-name="itilde" unicode="&#x129;" horiz-adv-x="636" 
d="M140 0l312 1607h319l-312 -1607h-319zM522 1764q-13 10 -28 10q-39 0 -89 -70l-23 -39l-102 77l23 39q80 134 181 186q51 26 97 26q51 0 97 -33l108 -82q13 -10 28 -10q39 0 89 71l23 38l102 -77l-23 -38q-80 -134 -181 -187q-51 -26 -96 -26q-52 0 -98 35z" />
    <glyph glyph-name="Imacron" unicode="&#x12a;" horiz-adv-x="604" 
d="M84 0l329 1692h336l-329 -1692h-336zM889 2030l-42 -215h-517l42 215h517z" />
    <glyph glyph-name="imacron" unicode="&#x12b;" horiz-adv-x="636" 
d="M140 0l312 1607h319l-312 -1607h-319zM936 1945l-42 -215h-517l42 215h517z" />
    <glyph glyph-name="Ibreve" unicode="&#x12c;" horiz-adv-x="604" 
d="M84 0l329 1692h336l-329 -1692h-336zM944 2075q-164 -295 -361 -295q-198 0 -248 295h212q30 -89 76 -89q47 0 111 89h210z" />
    <glyph glyph-name="ibreve" unicode="&#x12d;" horiz-adv-x="636" 
d="M140 0l312 1607h319l-312 -1607h-319zM991 1990q-164 -295 -361 -295q-198 0 -248 295h212q30 -89 76 -89q47 0 111 89h210z" />
    <glyph glyph-name="Iogonek" unicode="&#x12e;" horiz-adv-x="604" 
d="M305 0h-201l329 1692h336l-329 -1692l3 -76q-90 -25 -121 -49q-36 -27 -47 -64q-2 -5 -3 -10q-6 -30 12 -51q20 -22 55 -22h6q28 2 105 30l3 -116q-71 -43 -148 -48h-15q-89 0 -136 56q-45 52 -30 128q2 12 7 24q26 92 117 161q28 22 57 37z" />
    <glyph glyph-name="iogonek" unicode="&#x12f;" horiz-adv-x="636" 
d="M361 0h-184l312 1607h319l-312 -1607l3 -76q-90 -25 -121 -49q-36 -27 -47 -64q-2 -5 -3 -10q-6 -30 12 -51q20 -22 55 -22h6q28 2 105 30l3 -116q-71 -43 -148 -48h-15q-89 0 -136 56q-45 52 -30 128q2 12 7 24q26 92 117 161q28 22 57 37z" />
    <glyph glyph-name="Idotaccent" unicode="&#x130;" horiz-adv-x="604" 
d="M84 0l329 1692h336l-329 -1692h-336zM772 2034l-43 -220h-281l43 220h281z" />
    <glyph glyph-name="dotlessi" unicode="&#x131;" horiz-adv-x="636" 
d="M140 0l312 1607h319l-312 -1607h-319z" />
    <glyph glyph-name="IJ" unicode="&#x132;" horiz-adv-x="1425" 
d="M84 0l329 1692h336l-329 -1692h-336zM821 313q160 0 181 110l247 1269h336l-247 -1269q-37 -194 -208 -312q-162 -111 -370 -111h-179l61 313h179z" />
    <glyph glyph-name="ij" unicode="&#x133;" horiz-adv-x="1465" 
d="M140 0l312 1607h319l-312 -1607h-319zM888 297q152 0 172 105l234 1205h319l-234 -1205q-36 -184 -198 -297q-153 -105 -351 -105h-170l58 297h170z" />
    <glyph glyph-name="Jcircumflex" unicode="&#x134;" horiz-adv-x="821" 
d="M217 313q160 0 181 110l247 1269h336l-247 -1269q-37 -194 -208 -312q-162 -111 -370 -111h-179l61 313h179zM906 1780l-65 145l-122 -145h-212l166 295h395l48 -295h-210z" />
    <glyph glyph-name="jcircumflex" unicode="&#x135;" horiz-adv-x="829" 
d="M252 297q152 0 172 105l234 1205h319l-234 -1205q-36 -184 -198 -297q-153 -105 -351 -105h-170l58 297h170zM922 1695l-65 145l-122 -145h-212l166 295h395l48 -295h-210z" />
    <glyph glyph-name="uni0136" unicode="&#x136;" horiz-adv-x="1158" 
d="M554 689l-134 -689h-336l329 1692h336l-134 -689h129l342 689h341l-419 -846l90 -846h-341l-74 689h-129zM729 -13l-36 -188l-241 -212l41 212h-83l36 188h283z" />
    <glyph glyph-name="uni0137" unicode="&#x137;" horiz-adv-x="1181" 
d="M586 655l-127 -655h-319l312 1607h319l-127 -654h123l324 654h324l-397 -803l85 -804h-324l-70 655h-123zM760 -13l-36 -188l-241 -212l41 212h-83l36 188h283z" />
    <glyph glyph-name="kgreenlandic" unicode="&#x138;" horiz-adv-x="1181" 
d="M586 523.992l-127 -523.992h-319l312 1285.58h319l-127 -523.191h123l324 523.191h324l-397 -642.39l85 -643.19h-324l-70 523.992h-123z" />
    <glyph glyph-name="Lacute" unicode="&#x139;" horiz-adv-x="941" 
d="M84 0l329 1692h336l-268 -1379h466l-61 -313h-802zM666 1758l172 310h319l-270 -310h-221z" />
    <glyph glyph-name="lacute" unicode="&#x13a;" horiz-adv-x="946" 
d="M139 0l312 1607h319l-254 -1310h443l-58 -297h-762zM630 1812l172 310h319l-270 -310h-221z" />
    <glyph glyph-name="uni013B" unicode="&#x13b;" horiz-adv-x="941" 
d="M84 0l329 1692h336l-268 -1379h466l-61 -313h-802zM623 -13l-36 -188l-241 -212l41 212h-83l36 188h283z" />
    <glyph glyph-name="uni013C" unicode="&#x13c;" horiz-adv-x="946" 
d="M139 0l312 1607h319l-254 -1310h443l-58 -297h-762zM658 -13l-36 -188l-241 -212l41 212h-83l36 188h283z" />
    <glyph glyph-name="Lcaron" unicode="&#x13d;" horiz-adv-x="941" 
d="M84 0l329 1692h336l-268 -1379h466l-61 -313h-802zM1198 1607l-42 -219l-223 -248l48 248h-73l42 219h248z" />
    <glyph glyph-name="lcaron" unicode="&#x13e;" horiz-adv-x="1494" 
d="M139 0l312 1607h319l-254 -1310h443l-58 -297h-762zM1556 1607l-42 -219l-223 -248l48 248h-73l42 219h248z" />
    <glyph glyph-name="Ldot" unicode="&#x13f;" horiz-adv-x="941" 
d="M84 0l329 1692h336l-268 -1379h466l-61 -313h-802zM847.236 978.893l-51.8477 -266.043h-300.892l51.8486 266.043h300.891z" />
    <glyph glyph-name="ldot" unicode="&#x140;" horiz-adv-x="1247" 
d="M139 0l312 1607h319l-254 -1310h443l-58 -297h-762zM1254.24 936.893l-51.8477 -266.043h-300.892l51.8486 266.043h300.891z" />
    <glyph glyph-name="Lslash" unicode="&#x141;" horiz-adv-x="941" 
d="M565 744l-84 -431h466l-61 -313h-802l145 744h-60l41 213h60l143 735h336l-143 -735h286l-41 -213h-286z" />
    <glyph glyph-name="lslash" unicode="&#x142;" horiz-adv-x="898" 
d="M538 707l-80 -410h443l-58 -297h-762l137 707h-57l40 202h57l135 698h320l-136 -698h272l-40 -202h-271z" />
    <glyph glyph-name="Nacute" unicode="&#x143;" horiz-adv-x="1345" 
d="M632 1090l-212 -1090h-336l329 1692h466l62 -1095l213 1095h336l-329 -1692h-465zM804 1758l172 310h319l-270 -310h-221z" />
    <glyph glyph-name="nacute" unicode="&#x144;" horiz-adv-x="1340" 
d="M660 1035l-201 -1035h-319l312 1607h443l59 -1040l202 1040h319l-312 -1607h-442zM833 1673l172 310h319l-270 -310h-221z" />
    <glyph glyph-name="uni0145" unicode="&#x145;" horiz-adv-x="1345" 
d="M632 1090l-212 -1090h-336l329 1692h466l62 -1095l213 1095h336l-329 -1692h-465zM761 -13l-36 -188l-241 -212l41 212h-83l36 188h283z" />
    <glyph glyph-name="uni0146" unicode="&#x146;" horiz-adv-x="1340" 
d="M660 1035l-201 -1035h-319l312 1607h443l59 -1040l202 1040h319l-312 -1607h-442zM790 -13l-36 -188l-241 -212l41 212h-83l36 188h283z" />
    <glyph glyph-name="Ncaron" unicode="&#x147;" horiz-adv-x="1345" 
d="M632 1090l-212 -1090h-336l329 1692h466l62 -1095l213 1095h336l-329 -1692h-465zM1314 2075l-164 -295h-395l-50 295h212l65 -145l122 145h210z" />
    <glyph glyph-name="ncaron" unicode="&#x148;" horiz-adv-x="1340" 
d="M660 1035l-201 -1035h-319l312 1607h443l59 -1040l202 1040h319l-312 -1607h-442zM1343 1990l-164 -295h-395l-50 295h212l65 -145l122 145h210z" />
    <glyph glyph-name="napostrophe" unicode="&#x149;" horiz-adv-x="1474" 
d="M842 2283l-43 -219l-223 -248l48 248h-73l43 219h248zM794 1035l-201 -1035h-319l312 1607h443l59 -1040l202 1040h319l-312 -1607h-442z" />
    <glyph glyph-name="Eng" unicode="&#x14a;" horiz-adv-x="1345" 
d="M632 1090l-212 -1090h-336l329 1692h466l62 -1095l213 1095h336l-329 -1692h-465zM1222 315l-61 -313l-318 -354l68 354h-104l61 313h354z" />
    <glyph glyph-name="eng" unicode="&#x14b;" horiz-adv-x="1340" 
d="M660 1035l-201 -1035h-319l312 1607h443l59 -1040l202 1040h319l-312 -1607h-442zM1224 315l-61 -313l-318 -354l68 354h-104l61 313h354z" />
    <glyph glyph-name="Omacron" unicode="&#x14c;" horiz-adv-x="1235" 
d="M672 1379l-207 -1066h318l207 1066h-318zM1139 1692q101 0 161 -67q61 -68 42 -164l-239 -1230q-19 -96 -106 -164q-86 -67 -187 -67h-494q-101 0 -161 67q-61 68 -42 164l239 1230q19 96 106 164q86 67 187 67h494zM1200 2030l-42 -215h-517l42 215h517z" />
    <glyph glyph-name="omacron" unicode="&#x14d;" horiz-adv-x="1233" 
d="M698 1310l-197 -1013h302l197 1013h-302zM1141 1607q96 0 153 -63q58 -65 41 -156l-227 -1169q-18 -91 -102 -155q-81 -64 -177 -64h-469q-96 0 -154 64q-57 64 -39 155l227 1169q17 91 100 156q82 63 178 63h469zM1231 1945l-42 -215h-517l42 215h517z" />
    <glyph glyph-name="Obreve" unicode="&#x14e;" horiz-adv-x="1235" 
d="M672 1379l-207 -1066h318l207 1066h-318zM1139 1692q101 0 161 -67q61 -68 42 -164l-239 -1230q-19 -96 -106 -164q-86 -67 -187 -67h-494q-101 0 -161 67q-61 68 -42 164l239 1230q19 96 106 164q86 67 187 67h494zM1255 2075q-164 -295 -361 -295q-198 0 -248 295h212
q30 -89 76 -89q47 0 111 89h210z" />
    <glyph glyph-name="obreve" unicode="&#x14f;" horiz-adv-x="1233" 
d="M698 1310l-197 -1013h302l197 1013h-302zM1141 1607q96 0 153 -63q58 -65 41 -156l-227 -1169q-18 -91 -102 -155q-81 -64 -177 -64h-469q-96 0 -154 64q-57 64 -39 155l227 1169q17 91 100 156q82 63 178 63h469zM1286 1990q-164 -295 -361 -295q-198 0 -248 295h212
q30 -89 76 -89q47 0 111 89h210z" />
    <glyph glyph-name="Ohungarumlaut" unicode="&#x150;" horiz-adv-x="1235" 
d="M672 1379l-207 -1066h318l207 1066h-318zM1139 1692q101 0 161 -67q61 -68 42 -164l-239 -1230q-19 -96 -106 -164q-86 -67 -187 -67h-494q-101 0 -161 67q-61 68 -42 164l239 1230q19 96 106 164q86 67 187 67h494zM457 1758l172 310h319l-270 -310h-221zM888 1758
l172 310h319l-270 -310h-221z" />
    <glyph glyph-name="ohungarumlaut" unicode="&#x151;" horiz-adv-x="1233" 
d="M698 1310l-197 -1013h302l197 1013h-302zM1141 1607q96 0 153 -63q58 -65 41 -156l-227 -1169q-18 -91 -102 -155q-81 -64 -177 -64h-469q-96 0 -154 64q-57 64 -39 155l227 1169q17 91 100 156q82 63 178 63h469zM489 1673l172 310h319l-270 -310h-221zM920 1673
l172 310h319l-270 -310h-221z" />
    <glyph glyph-name="OE" unicode="&#x152;" horiz-adv-x="1594" 
d="M672 1379l-207 -1066h318l207 1066h-318zM1139 1692q101 0 161 -67q61 -68 42 -164l-239 -1230q-19 -96 -106 -164q-86 -67 -187 -67h-494q-101 0 -161 67q-61 68 -42 164l239 1230q19 96 106 164q86 67 187 67h494zM1007 313h560l-61 -313h-896l329 1692h896l-61 -313
h-560l-73 -376h466l-61 -314h-466z" />
    <glyph glyph-name="oe" unicode="&#x153;" horiz-adv-x="1840" 
d="M698 1310l-197 -1013h302l197 1013h-302zM1141 1607q96 0 153 -63q58 -65 41 -156l-227 -1169q-18 -91 -102 -155q-81 -64 -177 -64h-469q-96 0 -154 64q-57 64 -39 155l227 1169q17 91 100 156q82 63 178 63h469zM1272 297h532l-58 -297h-851l312 1607h851l-57 -297
h-532l-70 -357h443l-58 -298h-443z" />
    <glyph glyph-name="Racute" unicode="&#x154;" horiz-adv-x="1231" 
d="M796 916q48 0 90 32q42 31 51 77l69 354h-318l-90 -463h198zM537 603l-117 -603h-336l329 1692h742q101 0 161 -67q61 -68 42 -164l-85 -436q-32 -166 -180 -265q109 -99 77 -267l-96 -493h-336l96 493q9 46 -21 79q-30 31 -78 31h-198zM760 1758l172 310h319l-270 -310
h-221z" />
    <glyph glyph-name="racute" unicode="&#x155;" horiz-adv-x="1245" 
d="M816 870q46 0 86 31q40 29 48 73l66 336h-302l-86 -440h188zM570 573l-111 -573h-319l312 1607h705q96 0 153 -63q58 -65 41 -156l-81 -414q-30 -158 -172 -252q105 -94 74 -254l-91 -468h-320l91 468q9 44 -19 75q-29 30 -75 30h-188zM792 1673l172 310h319l-270 -310
h-221z" />
    <glyph glyph-name="uni0156" unicode="&#x156;" horiz-adv-x="1231" 
d="M796 916q48 0 90 32q42 31 51 77l69 354h-318l-90 -463h198zM537 603l-117 -603h-336l329 1692h742q101 0 161 -67q61 -68 42 -164l-85 -436q-32 -166 -180 -265q109 -99 77 -267l-96 -493h-336l96 493q9 46 -21 79q-30 31 -78 31h-198zM717 -13l-36 -188l-241 -212
l41 212h-83l36 188h283z" />
    <glyph glyph-name="uni0157" unicode="&#x157;" horiz-adv-x="1245" 
d="M816 870q46 0 86 31q40 29 48 73l66 336h-302l-86 -440h188zM570 573l-111 -573h-319l312 1607h705q96 0 153 -63q58 -65 41 -156l-81 -414q-30 -158 -172 -252q105 -94 74 -254l-91 -468h-320l91 468q9 44 -19 75q-29 30 -75 30h-188zM749 -13l-36 -188l-241 -212
l41 212h-83l36 188h283z" />
    <glyph glyph-name="Rcaron" unicode="&#x158;" horiz-adv-x="1231" 
d="M796 916q48 0 90 32q42 31 51 77l69 354h-318l-90 -463h198zM537 603l-117 -603h-336l329 1692h742q101 0 161 -67q61 -68 42 -164l-85 -436q-32 -166 -180 -265q109 -99 77 -267l-96 -493h-336l96 493q9 46 -21 79q-30 31 -78 31h-198zM1271 2075l-164 -295h-395
l-50 295h212l65 -145l122 145h210z" />
    <glyph glyph-name="rcaron" unicode="&#x159;" horiz-adv-x="1245" 
d="M816 870q46 0 86 31q40 29 48 73l66 336h-302l-86 -440h188zM570 573l-111 -573h-319l312 1607h705q96 0 153 -63q58 -65 41 -156l-81 -414q-30 -158 -172 -252q105 -94 74 -254l-91 -468h-320l91 468q9 44 -19 75q-29 30 -75 30h-188zM1302 1990l-164 -295h-395l-50 295
h212l65 -145l122 145h210z" />
    <glyph glyph-name="Sacute" unicode="&#x15a;" horiz-adv-x="1181" 
d="M978 1379h-318l-52 -267q-21 -109 138 -109q208 0 325 -111q125 -118 88 -312l-68 -349q-19 -96 -106 -164q-86 -67 -187 -67h-494q-101 0 -161 67q-61 68 -42 164l66 341h336l-50 -259h318l52 267q21 109 -138 109q-208 0 -325 111q-126 118 -88 312l68 349
q19 96 106 164q86 67 187 67h494q101 0 161 -67q61 -68 42 -164l-66 -340h-336zM732 1758l172 310h319l-270 -310h-221z" />
    <glyph glyph-name="sacute" unicode="&#x15b;" horiz-adv-x="1194" 
d="M992 1310h-302l-50 -254q-20 -103 131 -103q198 0 310 -106q119 -112 83 -296l-64 -332q-18 -91 -102 -155q-81 -64 -177 -64h-469q-96 0 -154 64q-57 64 -39 155l63 324h319l-48 -246h302l49 254q20 104 -131 104q-197 0 -308 105q-120 112 -84 296l65 332
q17 91 100 156q82 63 178 63h469q96 0 153 -63q58 -65 41 -156l-63 -323h-320zM768 1673l172 310h319l-270 -310h-221z" />
    <glyph glyph-name="Scircumflex" unicode="&#x15c;" horiz-adv-x="1181" 
d="M978 1379h-318l-52 -267q-21 -109 138 -109q208 0 325 -111q125 -118 88 -312l-68 -349q-19 -96 -106 -164q-86 -67 -187 -67h-494q-101 0 -161 67q-61 68 -42 164l66 341h336l-50 -259h318l52 267q21 109 -138 109q-208 0 -325 111q-126 118 -88 312l68 349
q19 96 106 164q86 67 187 67h494q101 0 161 -67q61 -68 42 -164l-66 -340h-336zM975 1780l-65 145l-122 -145h-212l166 295h395l48 -295h-210z" />
    <glyph glyph-name="scircumflex" unicode="&#x15d;" horiz-adv-x="1194" 
d="M992 1310h-302l-50 -254q-20 -103 131 -103q198 0 310 -106q119 -112 83 -296l-64 -332q-18 -91 -102 -155q-81 -64 -177 -64h-469q-96 0 -154 64q-57 64 -39 155l63 324h319l-48 -246h302l49 254q20 104 -131 104q-197 0 -308 105q-120 112 -84 296l65 332
q17 91 100 156q82 63 178 63h469q96 0 153 -63q58 -65 41 -156l-63 -323h-320zM1010 1695l-65 145l-122 -145h-212l166 295h395l48 -295h-210z" />
    <glyph glyph-name="Scedilla" unicode="&#x15e;" horiz-adv-x="1181" 
d="M978 1379h-318l-52 -267q-21 -109 138 -109q208 0 325 -111q125 -118 88 -312l-68 -349q-19 -96 -106 -164q-86 -67 -187 -67h-494q-101 0 -161 67q-61 68 -42 164l66 341h336l-50 -259h318l52 267q21 109 -138 109q-208 0 -325 111q-126 118 -88 312l68 349
q19 96 106 164q86 67 187 67h494q101 0 161 -67q61 -68 42 -164l-66 -340h-336zM460 -277q42 0 77.5 25.5t42.5 61.5q7 37 -18 63q-18 16 -85 44l90 109q74 -11 123 -60q63 -65 45 -156q-17 -90 -105.5 -154.5t-195.5 -64.5q-108 0 -170 65l88 106q71 -39 108 -39z" />
    <glyph glyph-name="scedilla" unicode="&#x15f;" horiz-adv-x="1194" 
d="M992 1310h-302l-50 -254q-20 -103 131 -103q198 0 310 -106q119 -112 83 -296l-64 -332q-18 -91 -102 -155q-81 -64 -177 -64h-469q-96 0 -154 64q-57 64 -39 155l63 324h319l-48 -246h302l49 254q20 104 -131 104q-197 0 -308 105q-120 112 -84 296l65 332
q17 91 100 156q82 63 178 63h469q96 0 153 -63q58 -65 41 -156l-63 -323h-320zM495 -277q42 0 77.5 25.5t42.5 61.5q7 37 -18 63q-18 16 -85 44l90 109q74 -11 123 -60q63 -65 45 -156q-17 -90 -105.5 -154.5t-195.5 -64.5q-108 0 -170 65l88 106q71 -39 108 -39z" />
    <glyph glyph-name="Scaron" unicode="&#x160;" horiz-adv-x="1181" 
d="M978 1379h-318l-52 -267q-21 -109 138 -109q208 0 325 -111q125 -118 88 -312l-68 -349q-19 -96 -106 -164q-86 -67 -187 -67h-494q-101 0 -161 67q-61 68 -42 164l66 341h336l-50 -259h318l52 267q21 109 -138 109q-208 0 -325 111q-126 118 -88 312l68 349
q19 96 106 164q86 67 187 67h494q101 0 161 -67q61 -68 42 -164l-66 -340h-336zM1243 2075l-164 -295h-395l-50 295h212l65 -145l122 145h210z" />
    <glyph glyph-name="scaron" unicode="&#x161;" horiz-adv-x="1194" 
d="M992 1310h-302l-50 -254q-20 -103 131 -103q198 0 310 -106q119 -112 83 -296l-64 -332q-18 -91 -102 -155q-81 -64 -177 -64h-469q-96 0 -154 64q-57 64 -39 155l63 324h319l-48 -246h302l49 254q20 104 -131 104q-197 0 -308 105q-120 112 -84 296l65 332
q17 91 100 156q82 63 178 63h469q96 0 153 -63q58 -65 41 -156l-63 -323h-320zM1278 1990l-164 -295h-395l-50 295h212l65 -145l122 145h210z" />
    <glyph glyph-name="uni0162" unicode="&#x162;" horiz-adv-x="994" 
d="M426 0h-120l268 1379h-328l61 313h990l-61 -313h-327l-268 -1379h-116q25 -14 45 -34q63 -65 45 -156q-17 -90 -105.5 -154.5t-195.5 -64.5q-108 0 -170 65l88 106q71 -39 108 -39q42 0 77.5 25.5t42.5 61.5q7 37 -18 63q-18 16 -85 44z" />
    <glyph glyph-name="uni0163" unicode="&#x163;" horiz-adv-x="976" 
d="M428 0h-94l255 1310h-312l57 297h941l-57 -297h-311l-255 -1310h-125q25 -14 45 -34q63 -65 45 -156q-17 -90 -105.5 -154.5t-195.5 -64.5q-108 0 -170 65l88 106q71 -39 108 -39q42 0 77.5 25.5t42.5 61.5q7 37 -18 63q-18 16 -85 44z" />
    <glyph glyph-name="Tcaron" unicode="&#x164;" horiz-adv-x="994" 
d="M574 1379h-328l61 313h990l-61 -313h-327l-268 -1379h-335zM1165 2075l-164 -295h-395l-50 295h212l65 -145l122 145h210z" />
    <glyph glyph-name="tcaron" unicode="&#x165;" horiz-adv-x="1524" 
d="M589 1310h-312l57 297h941l-57 -297h-311l-255 -1310h-318zM1586 1607l-42 -219l-223 -248l48 248h-73l42 219h248z" />
    <glyph glyph-name="Tbar" unicode="&#x166;" horiz-adv-x="994" 
d="M564 953l83 426h-328l61 313h990l-61 -313h-327l-83 -426h287l-41 -213h-287l-144 -740h-335l144 740h-287l41 213h287z" />
    <glyph glyph-name="tbar" unicode="&#x167;" horiz-adv-x="944" 
d="M540 905l78 405h-311l57 297h941l-58 -297h-311l-78 -405h272l-39 -202h-273l-136 -703h-318l136 703h-272l39 202h273z" />
    <glyph glyph-name="Utilde" unicode="&#x168;" horiz-adv-x="1242" 
d="M469 313h318l268 1379h336l-284 -1461q-19 -96 -106 -164q-86 -67 -187 -67h-494q-101 0 -161 67q-61 68 -42 164l284 1461h336zM789 1849q-13 10 -28 10q-39 0 -89 -70l-23 -39l-102 77l23 39q80 134 181 186q51 26 97 26q51 0 97 -33l108 -82q13 -10 28 -10q39 0 89 71
l23 38l102 -77l-23 -38q-80 -134 -181 -187q-51 -26 -96 -26q-52 0 -98 35z" />
    <glyph glyph-name="utilde" unicode="&#x169;" horiz-adv-x="1246" 
d="M509 297h302l254 1310h320l-269 -1388q-18 -91 -102 -155q-81 -64 -177 -64h-469q-96 0 -154 64q-57 64 -39 155l269 1388h319zM825 1764q-13 10 -28 10q-39 0 -89 -70l-23 -39l-102 77l23 39q80 134 181 186q51 26 97 26q51 0 97 -33l108 -82q13 -10 28 -10q39 0 89 71
l23 38l102 -77l-23 -38q-80 -134 -181 -187q-51 -26 -96 -26q-52 0 -98 35z" />
    <glyph glyph-name="Umacron" unicode="&#x16a;" horiz-adv-x="1242" 
d="M469 313h318l268 1379h336l-284 -1461q-19 -96 -106 -164q-86 -67 -187 -67h-494q-101 0 -161 67q-61 68 -42 164l284 1461h336zM1204 2030l-42 -215h-517l42 215h517z" />
    <glyph glyph-name="umacron" unicode="&#x16b;" horiz-adv-x="1246" 
d="M509 297h302l254 1310h320l-269 -1388q-18 -91 -102 -155q-81 -64 -177 -64h-469q-96 0 -154 64q-57 64 -39 155l269 1388h319zM1239 1945l-42 -215h-517l42 215h517z" />
    <glyph glyph-name="Ubreve" unicode="&#x16c;" horiz-adv-x="1242" 
d="M469 313h318l268 1379h336l-284 -1461q-19 -96 -106 -164q-86 -67 -187 -67h-494q-101 0 -161 67q-61 68 -42 164l284 1461h336zM1259 2075q-164 -295 -361 -295q-198 0 -248 295h212q30 -89 76 -89q47 0 111 89h210z" />
    <glyph glyph-name="ubreve" unicode="&#x16d;" horiz-adv-x="1246" 
d="M509 297h302l254 1310h320l-269 -1388q-18 -91 -102 -155q-81 -64 -177 -64h-469q-96 0 -154 64q-57 64 -39 155l269 1388h319zM1294 1990q-164 -295 -361 -295q-198 0 -248 295h212q30 -89 76 -89q47 0 111 89h210z" />
    <glyph glyph-name="Uring" unicode="&#x16e;" horiz-adv-x="1242" 
d="M469 313h318l268 1379h336l-284 -1461q-19 -96 -106 -164q-86 -67 -187 -67h-494q-101 0 -161 67q-61 68 -42 164l284 1461h336zM1114 2076.5q53 -66.5 35 -160.5q-18 -93 -97 -159.5t-173 -66.5t-147 66.5t-35 159.5q18 94 97 160.5t173 66.5t147 -66.5zM941 2007
q-38 0 -70 -26.5t-39 -64.5q-7 -37 14 -63.5t59 -26.5q37 0 69 26.5t39 63.5q7 38 -14 64.5t-58 26.5z" />
    <glyph glyph-name="uring" unicode="&#x16f;" horiz-adv-x="1246" 
d="M509 297h302l254 1310h320l-269 -1388q-18 -91 -102 -155q-81 -64 -177 -64h-469q-96 0 -154 64q-57 64 -39 155l269 1388h319zM1150 1991.5q53 -66.5 35 -160.5q-18 -93 -97 -159.5t-173 -66.5t-147 66.5t-35 159.5q18 94 97 160.5t173 66.5t147 -66.5zM977 1922
q-38 0 -70 -26.5t-39 -64.5q-7 -37 14 -63.5t59 -26.5q37 0 69 26.5t39 63.5q7 38 -14 64.5t-58 26.5z" />
    <glyph glyph-name="Uhungarumlaut" unicode="&#x170;" horiz-adv-x="1242" 
d="M469 313h318l268 1379h336l-284 -1461q-19 -96 -106 -164q-86 -67 -187 -67h-494q-101 0 -161 67q-61 68 -42 164l284 1461h336zM461 1758l172 310h319l-270 -310h-221zM892 1758l172 310h319l-270 -310h-221z" />
    <glyph glyph-name="uhungarumlaut" unicode="&#x171;" horiz-adv-x="1246" 
d="M509 297h302l254 1310h320l-269 -1388q-18 -91 -102 -155q-81 -64 -177 -64h-469q-96 0 -154 64q-57 64 -39 155l269 1388h319zM497 1673l172 310h319l-270 -310h-221zM928 1673l172 310h319l-270 -310h-221z" />
    <glyph glyph-name="Uogonek" unicode="&#x172;" horiz-adv-x="1242" 
d="M539 0h-219q-101 0 -161 67q-61 68 -42 164l284 1461h336l-268 -1379h318l268 1379h336l-284 -1461q-19 -96 -106 -164q-86 -67 -187 -67h-51q-73 -22 -100 -43q-36 -27 -47 -64q-2 -5 -3 -10q-6 -30 12 -51q20 -22 55 -22h6q27 2 105 30l3 -116q-71 -43 -148 -48h-15
q-89 0 -136 56q-45 52 -30 128q2 12 6 24q19 63 68 116z" />
    <glyph glyph-name="uogonek" unicode="&#x173;" horiz-adv-x="1246" 
d="M652 0h-284q-96 0 -154 64q-57 64 -39 155l269 1388h319l-254 -1310h302l254 1310h320l-269 -1388q-18 -91 -102 -155q-59 -47 -126 -59q-80 -24 -110 -46q-35 -27 -46 -64q-2 -5 -3 -10q-6 -30 12 -51q19 -22 54 -22h6q28 2 105 30l4 -116q-72 -43 -149 -48h-15
q-89 0 -136 56q-45 52 -30 128q3 12 7 24q18 62 65 114z" />
    <glyph glyph-name="Wcircumflex" unicode="&#x174;" horiz-adv-x="1927" 
d="M1049 1692h427l-63 -1376q279 913 448 1376h340l-618 -1692h-449l37 1218l-437 -1218h-449l39 1692h340q-11 -463 -88 -1376zM1357 1780l-65 145l-122 -145h-212l166 295h395l48 -295h-210z" />
    <glyph glyph-name="wcircumflex" unicode="&#x175;" horiz-adv-x="1882" 
d="M1045 1607h405l-59 -1307q265 868 425 1307h323l-586 -1607h-427l35 1157l-415 -1157h-426l36 1607h323q-10 -439 -83 -1307zM1359 1695l-65 145l-122 -145h-212l166 295h395l48 -295h-210z" />
    <glyph glyph-name="Ycircumflex" unicode="&#x176;" horiz-adv-x="1011" 
d="M762 579l-113 -579h-336l112 578l-136 1114h343q26 -247 19 -810q215 563 336 810h343zM904 1780l-65 145l-122 -145h-212l166 295h395l48 -295h-210z" />
    <glyph glyph-name="ycircumflex" unicode="&#x177;" horiz-adv-x="1013" 
d="M770 550l-107 -550h-320l107 549l-130 1058h326q25 -234 19 -769q204 535 318 769h326zM926 1695l-65 145l-122 -145h-212l166 295h395l48 -295h-210z" />
    <glyph glyph-name="Ydieresis" unicode="&#x178;" horiz-adv-x="1011" 
d="M762 579l-113 -579h-336l112 578l-136 1114h343q26 -247 19 -810q215 563 336 810h343zM766 2034l-48 -248h-281l48 248h281zM1234 2034l-48 -248h-281l48 248h281z" />
    <glyph glyph-name="Zacute" unicode="&#x179;" horiz-adv-x="906" 
d="M677 1379h-390l61 313h827l-683 -1379h390l-61 -313h-826zM602 1758l172 310h319l-270 -310h-221z" />
    <glyph glyph-name="zacute" unicode="&#x17a;" horiz-adv-x="944" 
d="M697 1310h-370l57 297h785l-648 -1310h371l-58 -297h-785zM634 1673l172 310h319l-270 -310h-221z" />
    <glyph glyph-name="Zdotaccent" unicode="&#x17b;" horiz-adv-x="906" 
d="M677 1379h-390l61 313h827l-683 -1379h390l-61 -313h-826zM940 2034l-43 -220h-281l43 220h281z" />
    <glyph glyph-name="zdotaccent" unicode="&#x17c;" horiz-adv-x="944" 
d="M697 1310h-370l57 297h785l-648 -1310h371l-58 -297h-785zM973 1949l-43 -220h-281l43 220h281z" />
    <glyph glyph-name="Zcaron" unicode="&#x17d;" horiz-adv-x="906" 
d="M677 1379h-390l61 313h827l-683 -1379h390l-61 -313h-826zM1112 2075l-164 -295h-395l-50 295h212l65 -145l122 145h210z" />
    <glyph glyph-name="zcaron" unicode="&#x17e;" horiz-adv-x="944" 
d="M697 1310h-370l57 297h785l-648 -1310h371l-58 -297h-785zM1145 1990l-164 -295h-395l-50 295h212l65 -145l122 145h210z" />
    <glyph glyph-name="longs" unicode="&#x17f;" horiz-adv-x="1033" 
d="M452 1607h851l-57 -297h-532l-70 -357h443l-58 -298h-443l-127 -655h-319z" />
    <glyph glyph-name="uni0218" unicode="&#x218;" horiz-adv-x="1181" 
d="M978 1379h-318l-52 -267q-21 -109 138 -109q208 0 325 -111q125 -118 88 -312l-68 -349q-19 -96 -106 -164q-86 -67 -187 -67h-494q-101 0 -161 67q-61 68 -42 164l66 341h336l-50 -259h318l52 267q21 109 -138 109q-208 0 -325 111q-126 118 -88 312l68 349
q19 96 106 164q86 67 187 67h494q101 0 161 -67q61 -68 42 -164l-66 -340h-336zM689 -13l-36 -188l-241 -212l41 212h-83l36 188h283z" />
    <glyph glyph-name="uni0219" unicode="&#x219;" horiz-adv-x="1194" 
d="M992 1310h-302l-50 -254q-20 -103 131 -103q198 0 310 -106q119 -112 83 -296l-64 -332q-18 -91 -102 -155q-81 -64 -177 -64h-469q-96 0 -154 64q-57 64 -39 155l63 324h319l-48 -246h302l49 254q20 104 -131 104q-197 0 -308 105q-120 112 -84 296l65 332
q17 91 100 156q82 63 178 63h469q96 0 153 -63q58 -65 41 -156l-63 -323h-320zM725 -13l-36 -188l-241 -212l41 212h-83l36 188h283z" />
    <glyph glyph-name="uni021A" unicode="&#x21a;" horiz-adv-x="994" 
d="M574 1379h-328l61 313h990l-61 -313h-327l-268 -1379h-335zM611 -13l-36 -188l-241 -212l41 212h-83l36 188h283z" />
    <glyph glyph-name="uni021B" unicode="&#x21b;" horiz-adv-x="976" 
d="M589 1310h-312l57 297h941l-57 -297h-311l-255 -1310h-318zM631 -13l-36 -188l-241 -212l41 212h-83l36 188h283z" />
    <glyph glyph-name="uni0232" unicode="&#x232;" horiz-adv-x="1011" 
d="M762 579l-113 -579h-336l112 578l-136 1114h343q26 -247 19 -810q215 563 336 810h343zM1117 2030l-42 -215h-517l42 215h517z" />
    <glyph glyph-name="uni0233" unicode="&#x233;" horiz-adv-x="1013" 
d="M770 550l-107 -550h-320l107 549l-130 1058h326q25 -234 19 -769q204 535 318 769h326zM1139 1945l-42 -215h-517l42 215h517z" />
    <glyph glyph-name="uni0237" unicode="&#x237;" horiz-adv-x="829" 
d="M252 297q152 0 172 105l234 1205h319l-234 -1205q-36 -184 -198 -297q-153 -105 -351 -105h-170l58 297h170z" />
    <glyph glyph-name="uni02BB" unicode="&#x2bb;" horiz-adv-x="548" 
d="M503 1816l43 219l223 248l-48 -248h73l-43 -219h-248z" />
    <glyph glyph-name="uni02BC" unicode="&#x2bc;" horiz-adv-x="548" 
d="M842 2283l-43 -219l-223 -248l48 248h-73l43 219h248z" />
    <glyph glyph-name="circumflex" unicode="&#x2c6;" horiz-adv-x="909" 
d="M878 1695l-65 145l-122 -145h-212l166 295h395l48 -295h-210z" />
    <glyph glyph-name="caron" unicode="&#x2c7;" horiz-adv-x="909" 
d="M1146 1990l-164 -295h-395l-50 295h212l65 -145l122 145h210z" />
    <glyph glyph-name="uni02C9" unicode="&#x2c9;" horiz-adv-x="817" 
d="M1045 1945l-42 -215h-517l42 215h517z" />
    <glyph glyph-name="uni02CA" unicode="&#x2ca;" horiz-adv-x="731" 
d="M475 1673l172 310h319l-270 -310h-221z" />
    <glyph glyph-name="uni02CB" unicode="&#x2cb;" horiz-adv-x="731" 
d="M685 1673l-150 310h319l52 -310h-221z" />
    <glyph glyph-name="uni02CD" unicode="&#x2cd;" horiz-adv-x="1244" 
d="M1081 -65l-41 -215h-944l41 215h944z" />
    <glyph glyph-name="breve" unicode="&#x2d8;" horiz-adv-x="909" 
d="M1146 1990q-164 -295 -361 -295q-198 0 -248 295h212q30 -89 76 -89q47 0 111 89h210z" />
    <glyph glyph-name="dotaccent" unicode="&#x2d9;" horiz-adv-x="581" 
d="M810 1949l-43 -220h-281l43 220h281z" />
    <glyph glyph-name="ring" unicode="&#x2da;" horiz-adv-x="752" 
d="M923 1991.5q53 -66.5 35 -160.5q-18 -93 -97 -159.5t-173 -66.5t-147 66.5t-35 159.5q18 94 97 160.5t173 66.5t147 -66.5zM750 1922q-38 0 -70 -26.5t-39 -64.5q-7 -37 14 -63.5t59 -26.5q37 0 69 26.5t39 63.5q7 38 -14 64.5t-58 26.5z" />
    <glyph glyph-name="ogonek" unicode="&#x2db;" horiz-adv-x="664" 
d="M313 -125q-36 -27 -47 -64q-2 -5 -3 -10q-6 -30 12 -51q20 -22 55 -22h6q28 2 105 30l3 -116q-71 -43 -148 -48h-15q-89 0 -136 56q-45 52 -30 128q2 12 7 24q26 92 117 161q90 70 190 75l5 -114q-90 -25 -121 -49z" />
    <glyph glyph-name="tilde" unicode="&#x2dc;" horiz-adv-x="1018" 
d="M731 1764q-13 10 -28 10q-39 0 -89 -70l-23 -39l-102 77l23 39q80 134 181 186q51 26 97 26q51 0 97 -33l108 -82q13 -10 28 -10q39 0 89 71l23 38l102 -77l-23 -38q-80 -134 -181 -187q-51 -26 -96 -26q-52 0 -98 35z" />
    <glyph glyph-name="hungarumlaut" unicode="&#x2dd;" horiz-adv-x="1024" 
d="M259 1673l172 310h319l-270 -310h-221zM690 1673l172 310h319l-270 -310h-221z" />
    <glyph glyph-name="uni02F7" unicode="&#x2f7;" horiz-adv-x="1018" 
d="M377 -57q-13 10 -28 10q-39 0 -89 -70l-23 -39l-102 77l23 39q80 134 181 186q51 26 97 26q51 0 97 -33l108 -82q13 -10 28 -10q39 0 89 71l23 38l102 -77l-23 -38q-80 -134 -181 -187q-51 -26 -96 -26q-52 0 -98 35z" />
    <glyph glyph-name="gravecomb" unicode="&#x300;" horiz-adv-x="0" 
d="M-165 1673l-150 310h319l52 -310h-221z" />
    <glyph glyph-name="acutecomb" unicode="&#x301;" horiz-adv-x="0" 
d="M-345 1673l172 310h319l-270 -310h-221z" />
    <glyph glyph-name="uni0302" unicode="&#x302;" horiz-adv-x="0" 
d="M-62 1695l-65 145l-122 -145h-212l166 295h395l48 -295h-210z" />
    <glyph glyph-name="tildecomb" unicode="&#x303;" horiz-adv-x="0" 
d="M-179 1764q-13 10 -28 10q-39 0 -89 -70l-23 -39l-102 77l23 39q80 134 181 186q51 26 97 26q51 0 97 -33l108 -82q13 -10 28 -10q39 0 89 71l23 38l102 -77l-23 -38q-80 -134 -181 -187q-51 -26 -96 -26q-52 0 -98 35z" />
    <glyph glyph-name="uni0304" unicode="&#x304;" horiz-adv-x="0" 
d="M155 1945l-42 -215h-517l42 215h517z" />
    <glyph glyph-name="uni0305" unicode="&#x305;" horiz-adv-x="0" 
d="M2928 1820h-1137l41 213h1137z" />
    <glyph glyph-name="uni0306" unicode="&#x306;" horiz-adv-x="0" 
d="M236 1990q-164 -295 -361 -295q-198 0 -248 295h212q30 -89 76 -89q47 0 111 89h210z" />
    <glyph glyph-name="uni0307" unicode="&#x307;" horiz-adv-x="0" 
d="M50 1949l-43 -220h-281l43 220h281z" />
    <glyph glyph-name="uni0308" unicode="&#x308;" horiz-adv-x="0" 
d="M-110 1949l-48 -248h-281l48 248h281zM358 1949l-48 -248h-281l48 248h281z" />
    <glyph glyph-name="uni0310" unicode="&#x310;" horiz-adv-x="0" 
d="M-71 1990q-164 -295 -361 -295q-198 0 -248 295h212q30 -89 76 -89q47 0 111 89h210zM-210 2187l-36 -186h-237l36 186h237z" />
    <glyph glyph-name="uni0315" unicode="&#x315;" horiz-adv-x="548" 
d="M610 1607l-42 -219l-223 -248l48 248h-73l42 219h248z" />
    <glyph glyph-name="dotbelowcomb" unicode="&#x323;" horiz-adv-x="0" 
d="M-269 -51l-52 -266h-301l52 266h301z" />
    <glyph glyph-name="uni0324" unicode="&#x324;" horiz-adv-x="0" 
d="M-435 -81l-48 -248h-281l48 248h281zM33 -81l-48 -248h-281l48 248h281z" />
    <glyph glyph-name="uni0325" unicode="&#x325;" horiz-adv-x="0" 
d="M-219 -26.5q53 -66.5 35 -160.5q-18 -93 -97 -159.5t-173 -66.5t-147 66.5t-35 159.5q18 94 97 160.5t173 66.5t147 -66.5zM-393 -96q-38 0 -69.5 -26.5t-38.5 -64.5q-8 -37 13.5 -63.5t59.5 -26.5q37 0 68.5 26.5t39.5 63.5q7 38 -14.5 64.5t-58.5 26.5z" />
    <glyph glyph-name="uni0326" unicode="&#x326;" horiz-adv-x="0" 
d="M-250 -13l-36 -188l-241 -212l41 212h-83l36 188h283z" />
    <glyph glyph-name="uni1E0C" unicode="&#x1e0c;" horiz-adv-x="1240" 
d="M688 1379l-207 -1066h159q159 0 180 110l186 956h-318zM413 1692h742q101 0 161 -67q61 -68 42 -164l-202 -1038q-37 -194 -208 -312q-161 -111 -369 -111h-495zM720 -51l-52 -266h-301l52 266h301z" />
    <glyph glyph-name="uni1E0D" unicode="&#x1e0d;" horiz-adv-x="1238" 
d="M713 1310l-197 -1013h151q151 0 171 105l177 908h-302zM451 1607h705q96 0 153 -63q58 -65 41 -156l-192 -986q-36 -184 -199 -297q-152 -105 -350 -105h-470zM750 -51l-52 -266h-301l52 266h301z" />
    <glyph glyph-name="uni1E24" unicode="&#x1e24;" horiz-adv-x="1258" 
d="M554 689l-134 -689h-336l329 1692h336l-134 -689h318l134 689h336l-329 -1692h-336l134 689h-318zM720 -51l-52 -266h-301l52 266h301z" />
    <glyph glyph-name="uni1E25" unicode="&#x1e25;" horiz-adv-x="1258" 
d="M586 655l-127 -655h-319l312 1607h319l-127 -654h302l127 654h320l-312 -1607h-320l127 655h-302zM751 -51l-52 -266h-301l52 266h301z" />
    <glyph glyph-name="uni1E32" unicode="&#x1e32;" horiz-adv-x="1158" 
d="M554 689l-134 -689h-336l329 1692h336l-134 -689h129l342 689h341l-419 -846l90 -846h-341l-74 689h-129zM732 -51l-52 -266h-301l52 266h301z" />
    <glyph glyph-name="uni1E33" unicode="&#x1e33;" horiz-adv-x="1181" 
d="M586 655l-127 -655h-319l312 1607h319l-127 -654h123l324 654h324l-397 -803l85 -804h-324l-70 655h-123zM762 -51l-52 -266h-301l52 266h301z" />
    <glyph glyph-name="uni1E36" unicode="&#x1e36;" horiz-adv-x="941" 
d="M84 0l329 1692h336l-268 -1379h466l-61 -313h-802zM626 -51l-52 -266h-301l52 266h301z" />
    <glyph glyph-name="uni1E37" unicode="&#x1e37;" horiz-adv-x="946" 
d="M139 0l312 1607h319l-254 -1310h443l-58 -297h-762zM661 -51l-52 -266h-301l52 266h301z" />
    <glyph glyph-name="uni1E38" unicode="&#x1e38;" horiz-adv-x="941" 
d="M84 0l329 1692h336l-268 -1379h466l-61 -313h-802zM1122 2030l-42 -215h-517l42 215h517zM626 -51l-52 -266h-301l52 266h301z" />
    <glyph glyph-name="uni1E39" unicode="&#x1e39;" horiz-adv-x="946" 
d="M139 0l312 1607h319l-254 -1310h443l-58 -297h-762zM1157 2030l-42 -215h-517l42 215h517zM661 -51l-52 -266h-301l52 266h301z" />
    <glyph glyph-name="uni1E3A" unicode="&#x1e3a;" horiz-adv-x="941" 
d="M84 0l329 1692h336l-268 -1379h466l-61 -313h-802zM944 -65l-41 -215h-944l41 215h944z" />
    <glyph glyph-name="uni1E3B" unicode="&#x1e3b;" horiz-adv-x="946" 
d="M139 0l312 1607h319l-254 -1310h443l-58 -297h-762zM979 -65l-41 -215h-944l41 215h944z" />
    <glyph glyph-name="uni1E40" unicode="&#x1e40;" horiz-adv-x="1818" 
d="M1963 1692l-329 -1692h-336l217 1115l-451 -1115h-408l-19 1115l-217 -1115h-336l329 1692h466l43 -1375l575 1375h466zM1379 2034l-43 -220h-281l43 220h281z" />
    <glyph glyph-name="uni1E41" unicode="&#x1e41;" horiz-adv-x="1789" 
d="M1925 1607l-312 -1607h-320l206 1059l-428 -1059h-388l-18 1059l-206 -1059h-319l312 1607h443l41 -1306l546 1306h443zM1396 1949l-43 -220h-281l43 220h281z" />
    <glyph glyph-name="uni1E42" unicode="&#x1e42;" horiz-adv-x="1818" 
d="M1963 1692l-329 -1692h-336l217 1115l-451 -1115h-408l-19 1115l-217 -1115h-336l329 1692h466l43 -1375l575 1375h466zM1000 -51l-52 -266h-301l52 266h301z" />
    <glyph glyph-name="uni1E43" unicode="&#x1e43;" horiz-adv-x="1789" 
d="M1925 1607l-312 -1607h-320l206 1059l-428 -1059h-388l-18 1059l-206 -1059h-319l312 1607h443l41 -1306l546 1306h443zM1017 -51l-52 -266h-301l52 266h301z" />
    <glyph glyph-name="uni1E44" unicode="&#x1e44;" horiz-adv-x="1345" 
d="M632 1090l-212 -1090h-336l329 1692h466l62 -1095l213 1095h336l-329 -1692h-465zM1142 2034l-43 -220h-281l43 220h281z" />
    <glyph glyph-name="uni1E45" unicode="&#x1e45;" horiz-adv-x="1340" 
d="M660 1035l-201 -1035h-319l312 1607h443l59 -1040l202 1040h319l-312 -1607h-442zM1171 1949l-43 -220h-281l43 220h281z" />
    <glyph glyph-name="uni1E46" unicode="&#x1e46;" horiz-adv-x="1345" 
d="M632 1090l-212 -1090h-336l329 1692h466l62 -1095l213 1095h336l-329 -1692h-465zM763 -51l-52 -266h-301l52 266h301z" />
    <glyph glyph-name="uni1E47" unicode="&#x1e47;" horiz-adv-x="1340" 
d="M660 1035l-201 -1035h-319l312 1607h443l59 -1040l202 1040h319l-312 -1607h-442zM792 -51l-52 -266h-301l52 266h301z" />
    <glyph glyph-name="uni1E48" unicode="&#x1e48;" horiz-adv-x="1345" 
d="M632 1090l-212 -1090h-336l329 1692h466l62 -1095l213 1095h336l-329 -1692h-465zM1082 -65l-41 -215h-944l41 215h944z" />
    <glyph glyph-name="uni1E49" unicode="&#x1e49;" horiz-adv-x="1340" 
d="M660 1035l-201 -1035h-319l312 1607h443l59 -1040l202 1040h319l-312 -1607h-442zM1111 -65l-41 -215h-944l41 215h944z" />
    <glyph glyph-name="uni1E58" unicode="&#x1e58;" horiz-adv-x="1231" 
d="M796 916q48 0 90 32q42 31 51 77l69 354h-318l-90 -463h198zM537 603l-117 -603h-336l329 1692h742q101 0 161 -67q61 -68 42 -164l-85 -436q-32 -166 -180 -265q109 -99 77 -267l-96 -493h-336l96 493q9 46 -21 79q-30 31 -78 31h-198zM1099 2034l-43 -220h-281l43 220
h281z" />
    <glyph glyph-name="uni1E59" unicode="&#x1e59;" horiz-adv-x="1245" 
d="M816 870q46 0 86 31q40 29 48 73l66 336h-302l-86 -440h188zM570 573l-111 -573h-319l312 1607h705q96 0 153 -63q58 -65 41 -156l-81 -414q-30 -158 -172 -252q105 -94 74 -254l-91 -468h-320l91 468q9 44 -19 75q-29 30 -75 30h-188zM1130 1949l-43 -220h-281l43 220
h281z" />
    <glyph glyph-name="uni1E5A" unicode="&#x1e5a;" horiz-adv-x="1231" 
d="M796 916q48 0 90 32q42 31 51 77l69 354h-318l-90 -463h198zM537 603l-117 -603h-336l329 1692h742q101 0 161 -67q61 -68 42 -164l-85 -436q-32 -166 -180 -265q109 -99 77 -267l-96 -493h-336l96 493q9 46 -21 79q-30 31 -78 31h-198zM720 -51l-52 -266h-301l52 266
h301z" />
    <glyph glyph-name="uni1E5B" unicode="&#x1e5b;" horiz-adv-x="1245" 
d="M816 870q46 0 86 31q40 29 48 73l66 336h-302l-86 -440h188zM570 573l-111 -573h-319l312 1607h705q96 0 153 -63q58 -65 41 -156l-81 -414q-30 -158 -172 -252q105 -94 74 -254l-91 -468h-320l91 468q9 44 -19 75q-29 30 -75 30h-188zM591 -51l-52 -266h-301l52 266h301
z" />
    <glyph glyph-name="uni1E5C" unicode="&#x1e5c;" horiz-adv-x="1231" 
d="M796 916q48 0 90 32q42 31 51 77l69 354h-318l-90 -463h198zM537 603l-117 -603h-336l329 1692h742q101 0 161 -67q61 -68 42 -164l-85 -436q-32 -166 -180 -265q109 -99 77 -267l-96 -493h-336l96 493q9 46 -21 79q-30 31 -78 31h-198zM1216 2030l-42 -215h-517l42 215
h517zM720 -51l-52 -266h-301l52 266h301z" />
    <glyph glyph-name="uni1E5D" unicode="&#x1e5d;" horiz-adv-x="1245" 
d="M816 870q46 0 86 31q40 29 48 73l66 336h-302l-86 -440h188zM570 573l-111 -573h-319l312 1607h705q96 0 153 -63q58 -65 41 -156l-81 -414q-30 -158 -172 -252q105 -94 74 -254l-91 -468h-320l91 468q9 44 -19 75q-29 30 -75 30h-188zM1247 1945l-42 -215h-517l42 215
h517zM591 -51l-52 -266h-301l52 266h301z" />
    <glyph glyph-name="uni1E5E" unicode="&#x1e5e;" horiz-adv-x="1231" 
d="M796 916q48 0 90 32q42 31 51 77l69 354h-318l-90 -463h198zM537 603l-117 -603h-336l329 1692h742q101 0 161 -67q61 -68 42 -164l-85 -436q-32 -166 -180 -265q109 -99 77 -267l-96 -493h-336l96 493q9 46 -21 79q-30 31 -78 31h-198zM1038 -65l-41 -215h-944l41 215
h944z" />
    <glyph glyph-name="uni1E5F" unicode="&#x1e5f;" horiz-adv-x="1181" 
d="M758 856q45 0 85 31q40 29 49 73l65 336h-302l-85 -440h188zM512 559l-112 -573h-319l313 1607h705q96 0 153 -63q57 -65 40 -156l-81 -414q-31 -158 -171 -252q104 -94 73 -254l-91 -468h-319l91 468q8 44 -20 75q-28 30 -74 30h-188zM988 -76l-40 -204h-897l40 204h897
z" />
    <glyph glyph-name="uni1E62" unicode="&#x1e62;" horiz-adv-x="1181" 
d="M978 1379h-318l-52 -267q-21 -109 138 -109q208 0 325 -111q125 -118 88 -312l-68 -349q-19 -96 -106 -164q-86 -67 -187 -67h-494q-101 0 -161 67q-61 68 -42 164l66 341h336l-50 -259h318l52 267q21 109 -138 109q-208 0 -325 111q-126 118 -88 312l68 349
q19 96 106 164q86 67 187 67h494q101 0 161 -67q61 -68 42 -164l-66 -340h-336zM692 -51l-52 -266h-301l52 266h301z" />
    <glyph glyph-name="uni1E63" unicode="&#x1e63;" horiz-adv-x="1194" 
d="M992 1310h-302l-50 -254q-20 -103 131 -103q198 0 310 -106q119 -112 83 -296l-64 -332q-18 -91 -102 -155q-81 -64 -177 -64h-469q-96 0 -154 64q-57 64 -39 155l63 324h319l-48 -246h302l49 254q20 104 -131 104q-197 0 -308 105q-120 112 -84 296l65 332
q17 91 100 156q82 63 178 63h469q96 0 153 -63q58 -65 41 -156l-63 -323h-320zM727 -51l-52 -266h-301l52 266h301z" />
    <glyph glyph-name="uni1E6C" unicode="&#x1e6c;" horiz-adv-x="994" 
d="M574 1379h-328l61 313h990l-61 -313h-327l-268 -1379h-335zM614 -51l-52 -266h-301l52 266h301z" />
    <glyph glyph-name="uni1E6D" unicode="&#x1e6d;" horiz-adv-x="976" 
d="M589 1310h-312l57 297h941l-57 -297h-311l-255 -1310h-318zM633 -51l-52 -266h-301l52 266h301z" />
    <glyph glyph-name="Wgrave" unicode="&#x1e80;" horiz-adv-x="1927" 
d="M1049 1692h427l-63 -1376q279 913 448 1376h340l-618 -1692h-449l37 1218l-437 -1218h-449l39 1692h340q-11 -463 -88 -1376zM1181 1758l-150 310h319l52 -310h-221z" />
    <glyph glyph-name="wgrave" unicode="&#x1e81;" horiz-adv-x="1882" 
d="M1045 1607h405l-59 -1307q265 868 425 1307h323l-586 -1607h-427l35 1157l-415 -1157h-426l36 1607h323q-10 -439 -83 -1307zM1183 1673l-150 310h319l52 -310h-221z" />
    <glyph glyph-name="Wacute" unicode="&#x1e82;" horiz-adv-x="1927" 
d="M1049 1692h427l-63 -1376q279 913 448 1376h340l-618 -1692h-449l37 1218l-437 -1218h-449l39 1692h340q-11 -463 -88 -1376zM1115 1758l172 310h319l-270 -310h-221z" />
    <glyph glyph-name="wacute" unicode="&#x1e83;" horiz-adv-x="1882" 
d="M1045 1607h405l-59 -1307q265 868 425 1307h323l-586 -1607h-427l35 1157l-415 -1157h-426l36 1607h323q-10 -439 -83 -1307zM1117 1673l172 310h319l-270 -310h-221z" />
    <glyph glyph-name="Wdieresis" unicode="&#x1e84;" horiz-adv-x="1927" 
d="M1049 1692h427l-63 -1376q279 913 448 1376h340l-618 -1692h-449l37 1218l-437 -1218h-449l39 1692h340q-11 -463 -88 -1376zM1219 2034l-48 -248h-281l48 248h281zM1687 2034l-48 -248h-281l48 248h281z" />
    <glyph glyph-name="wdieresis" unicode="&#x1e85;" horiz-adv-x="1882" 
d="M1045 1607h405l-59 -1307q265 868 425 1307h323l-586 -1607h-427l35 1157l-415 -1157h-426l36 1607h323q-10 -439 -83 -1307zM1221 1949l-48 -248h-281l48 248h281zM1689 1949l-48 -248h-281l48 248h281z" />
    <glyph glyph-name="uni1E88" unicode="&#x1e88;" horiz-adv-x="1927" 
d="M1049 1692h427l-63 -1376q279 913 448 1376h340l-618 -1692h-449l37 1218l-437 -1218h-449l39 1692h340q-11 -463 -88 -1376zM1074 -51l-52 -266h-301l52 266h301z" />
    <glyph glyph-name="uni1E89" unicode="&#x1e89;" horiz-adv-x="1882" 
d="M1045 1607h405l-59 -1307q265 868 425 1307h323l-586 -1607h-427l35 1157l-415 -1157h-426l36 1607h323q-10 -439 -83 -1307zM1076 -51l-52 -266h-301l52 266h301z" />
    <glyph glyph-name="uni1E92" unicode="&#x1e92;" horiz-adv-x="906" 
d="M677 1379h-390l61 313h827l-683 -1379h390l-61 -313h-826zM561 -51l-52 -266h-301l52 266h301z" />
    <glyph glyph-name="uni1E93" unicode="&#x1e93;" horiz-adv-x="944" 
d="M697 1310h-370l57 297h785l-648 -1310h371l-58 -297h-785zM594 -51l-52 -266h-301l52 266h301z" />
    <glyph glyph-name="uni1EBC" unicode="&#x1ebc;" horiz-adv-x="1068" 
d="M481 313h560l-61 -313h-896l329 1692h896l-61 -313h-560l-73 -376h466l-61 -314h-466zM754 1849q-13 10 -28 10q-39 0 -89 -70l-23 -39l-102 77l23 39q80 134 181 186q51 26 97 26q51 0 97 -33l108 -82q13 -10 28 -10q39 0 89 71l23 38l102 -77l-23 -38
q-80 -134 -181 -187q-51 -26 -96 -26q-52 0 -98 35z" />
    <glyph glyph-name="uni1EBD" unicode="&#x1ebd;" horiz-adv-x="1084" 
d="M516 297h532l-58 -297h-851l312 1607h851l-57 -297h-532l-70 -357h443l-58 -298h-443zM787 1764q-13 10 -28 10q-39 0 -89 -70l-23 -39l-102 77l23 39q80 134 181 186q51 26 97 26q51 0 97 -33l108 -82q13 -10 28 -10q39 0 89 71l23 38l102 -77l-23 -38
q-80 -134 -181 -187q-51 -26 -96 -26q-52 0 -98 35z" />
    <glyph glyph-name="Ygrave" unicode="&#x1ef2;" horiz-adv-x="1011" 
d="M762 579l-113 -579h-336l112 578l-136 1114h343q26 -247 19 -810q215 563 336 810h343zM728 1758l-150 310h319l52 -310h-221z" />
    <glyph glyph-name="ygrave" unicode="&#x1ef3;" horiz-adv-x="1013" 
d="M770 550l-107 -550h-320l107 549l-130 1058h326q25 -234 19 -769q204 535 318 769h326zM750 1673l-150 310h319l52 -310h-221z" />
    <glyph glyph-name="uni1EF4" unicode="&#x1ef4;" horiz-adv-x="1011" 
d="M762 579l-113 -579h-336l112 578l-136 1114h343q26 -247 19 -810q215 563 336 810h343zM621 -51l-52 -266h-301l52 266h301z" />
    <glyph glyph-name="uni1EF5" unicode="&#x1ef5;" horiz-adv-x="1013" 
d="M770 550l-107 -550h-320l107 549l-130 1058h326q25 -234 19 -769q204 535 318 769h326zM843 -51l-52 -266h-301l52 266h301z" />
    <glyph glyph-name="uni2010" unicode="&#x2010;" horiz-adv-x="1040" 
d="M992 662h-753l55 283h753z" />
    <glyph glyph-name="uni2011" unicode="&#x2011;" horiz-adv-x="1040" 
d="M992 662h-753l55 283h753z" />
    <glyph glyph-name="figuredash" unicode="&#x2012;" horiz-adv-x="1302" 
d="M1514 705h-1375l55 283h1375z" />
    <glyph glyph-name="endash" unicode="&#x2013;" horiz-adv-x="1375" 
d="M1504 662h-1375l55 283h1375z" />
    <glyph glyph-name="emdash" unicode="&#x2014;" horiz-adv-x="2117" 
d="M2246 662h-2117l55 283h2117z" />
    <glyph glyph-name="uni2015" unicode="&#x2015;" horiz-adv-x="3072" 
d="M3369 662h-3175.5l82.5 283h3175.5z" />
    <glyph glyph-name="uni2016" unicode="&#x2016;" horiz-adv-x="1191" 
d="M70 -413l453 2334h297l-453 -2334h-297zM664 -413l453 2334h297l-453 -2334h-297z" />
    <glyph glyph-name="underscoredbl" unicode="&#x2017;" horiz-adv-x="1437" 
d="M1237 -256h-1137l42 213h1137zM1237 0h-1137l42 213h1137z" />
    <glyph glyph-name="quoteleft" unicode="&#x2018;" horiz-adv-x="654" 
d="M380 1184l61 313l319 354l-69 -354h104l-61 -313h-354z" />
    <glyph glyph-name="quoteright" unicode="&#x2019;" horiz-adv-x="654" 
d="M835 1702l-61 -313l-319 -354l69 354h-104l61 313h354z" />
    <glyph glyph-name="quotesinglbase" unicode="&#x201a;" horiz-adv-x="654" 
d="M565 315l-61 -313l-318 -354l68 354h-104l61 313h354z" />
    <glyph glyph-name="quotereversed" unicode="&#x201b;" horiz-adv-x="654" 
d="M-181 1702l61 -313l319 -354l-69 354h104l-61 313h-354z" />
    <glyph glyph-name="quotedblleft" unicode="&#x201c;" horiz-adv-x="1150" 
d="M380 1184l61 313l319 354l-69 -354h104l-61 -313h-354zM876 1184l61 313l319 354l-69 -354h104l-61 -313h-354z" />
    <glyph glyph-name="quotedblright" unicode="&#x201d;" horiz-adv-x="1150" 
d="M835 1702l-61 -313l-319 -354l69 354h-104l61 313h354zM1331 1702l-61 -313l-319 -354l69 354h-104l61 313h354z" />
    <glyph glyph-name="quotedblbase" unicode="&#x201e;" horiz-adv-x="1150" 
d="M835 333l-61 -313l-319 -354l69 354h-104l61 313h354zM1331 333l-61 -313l-319 -354l69 354h-104l61 313h354z" />
    <glyph glyph-name="uni201F" unicode="&#x201f;" horiz-adv-x="1150" 
d="M315 1702l61 -313l319 -354l-69 354h104l-61 313h-354zM-181 1702l61 -313l319 -354l-69 354h104l-61 313h-354z" />
    <glyph glyph-name="dagger" unicode="&#x2020;" horiz-adv-x="1321" 
d="M1027 1017l-198 -1017h-336l198 1017h-343l65 336h343l66 339h336l-66 -339h342l-65 -336h-342z" />
    <glyph glyph-name="daggerdbl" unicode="&#x2021;" horiz-adv-x="1321" 
d="M756 1353l66 339h336l-66 -339h342l-65 -336h-342l-73 -373h342l-65 -336h-342l-60 -308h-336l60 308h-343l65 336h343l73 373h-343l65 336h343z" />
    <glyph glyph-name="bullet" unicode="&#x2022;" horiz-adv-x="792" 
d="M827.5 1039.5q79.5 -98.5 52.5 -237.5t-144.5 -237.5t-256.5 -98.5t-218 98.5t-52 237.5t144 237.5t256 98.5t218.5 -98.5z" />
    <glyph glyph-name="uni2023" unicode="&#x2023;" horiz-adv-x="1156" 
d="M376 1370l845 -470l-1029 -480z" />
    <glyph glyph-name="onedotenleader" unicode="&#x2024;" horiz-adv-x="683" 
d="M545 314l-61 -313h-354l61 313h354z" />
    <glyph glyph-name="twodotenleader" unicode="&#x2025;" horiz-adv-x="1365" 
d="M545 314l-61 -313h-354l61 313h354zM1228 314l-61 -313h-354l61 313h354z" />
    <glyph glyph-name="ellipsis" unicode="&#x2026;" horiz-adv-x="2048" 
d="M545 314l-61 -313h-354l61 313h354zM1228 314l-61 -313h-354l61 313h354zM1911 314l-61 -313h-354l61 313h354z" />
    <glyph glyph-name="uni2027" unicode="&#x2027;" horiz-adv-x="508" 
d="M483.236 978.893l-51.8477 -266.043h-300.892l51.8486 266.043h300.891z" />
    <glyph glyph-name="perthousand" unicode="&#x2030;" horiz-adv-x="2851" 
d="M741 1558l-109 -560h174l109 560h-174zM1008 1722q72 0 116 -35q45 -36 35 -86l-126 -646q-9 -50 -68 -86q-58 -35 -130 -35h-296q-71 0 -115 35q-45 36 -35 86l125 646q10 50 69 86q58 35 128 35h297zM616 0l953 1692h262l-954 -1692h-261zM1624 694l-109 -560h175
l108 560h-174zM1891 858q72 0 116 -35q45 -36 35 -86l-125 -646q-10 -50 -69 -86q-58 -35 -129 -35h-297q-71 0 -115 35q-45 36 -35 86l125 646q10 50 69 86q58 35 129 35h296zM2399 694l-109 -560h174l109 560h-174zM2666 858q71 0 115 -35q45 -36 35 -86l-125 -646
q-10 -50 -69 -86q-58 -35 -129 -35h-297q-71 0 -115 35q-45 36 -35 86l126 646q9 50 68 86q58 35 129 35h297z" />
    <glyph glyph-name="uni2031" unicode="&#x2031;" horiz-adv-x="3687" 
d="M741 1558l-109 -560h174l109 560h-174zM1008 1722q72 0 116 -35q45 -36 35 -86l-126 -646q-9 -50 -68 -86q-58 -35 -130 -35h-296q-71 0 -115 35q-45 36 -35 86l125 646q10 50 69 86q58 35 128 35h297zM642 0l953 1692h262l-954 -1692h-261zM1683 694l-109 -560h174
l109 560h-174zM1950 858q71 0 115 -35q45 -36 35 -86l-125 -646q-10 -50 -69 -86q-58 -35 -129 -35h-297q-71 0 -115 35q-45 36 -35 86l126 646q9 50 68 86q58 35 129 35h297zM2459 694l-109 -560h174l109 560h-174zM2726 858q71 0 115 -35q45 -36 35 -86l-125 -646
q-10 -50 -69 -86q-58 -35 -129 -35h-297q-71 0 -115 35q-45 36 -35 86l126 646q9 50 68 86q58 35 129 35h297zM3235 694l-109 -560h174l109 560h-174zM3502 858q71 0 115 -35q45 -36 35 -86l-125 -646q-10 -50 -69 -86q-58 -35 -129 -35h-297q-71 0 -115 35q-45 36 -35 86
l126 646q9 50 68 86q58 35 129 35h297z" />
    <glyph glyph-name="minute" unicode="&#x2032;" horiz-adv-x="654" 
d="M425 1141l55 665h336l-206 -665h-185z" />
    <glyph glyph-name="second" unicode="&#x2033;" horiz-adv-x="990" 
d="M425 1141l55 665h336l-206 -665h-185zM761 1141l55 665h336l-206 -665h-185z" />
    <glyph glyph-name="uni2034" unicode="&#x2034;" horiz-adv-x="1326" 
d="M425 1141l55 665h336l-206 -665h-185zM761 1141l55 665h336l-206 -665h-185zM1097 1141l55 665h336l-206 -665h-185z" />
    <glyph glyph-name="uni2035" unicode="&#x2035;" horiz-adv-x="654" 
d="M169 1141l-55 665h-336l206 -665h185z" />
    <glyph glyph-name="uni2036" unicode="&#x2036;" horiz-adv-x="1326" 
d="M169 1141l-55 665h-336l206 -665h185zM841 1141l-55 665h-336l206 -665h185z" />
    <glyph glyph-name="uni2037" unicode="&#x2037;" horiz-adv-x="1998" 
d="M169 1141l-55 665h-336l206 -665h185zM841 1141l-55 665h-336l206 -665h185zM1513 1141l-55 665h-336l206 -665h185z" />
    <glyph glyph-name="uni2038" unicode="&#x2038;" horiz-adv-x="1250" 
d="M905 -249l-302 -569h-283l490 818h288l172 -818h-283z" />
    <glyph glyph-name="guilsinglleft" unicode="&#x2039;" horiz-adv-x="787" 
d="M334 946l551 331l-45 -235l-309 -240l215 -240l-45 -235l-423 331z" />
    <glyph glyph-name="guilsinglright" unicode="&#x203a;" horiz-adv-x="787" 
d="M765 658l-551 -331l45 235l309 240l-215 240l45 235l423 -331z" />
    <glyph glyph-name="fraction" unicode="&#x2044;" horiz-adv-x="646" 
d="M-120 0l953 1692h262l-954 -1692h-261z" />
    <glyph glyph-name="uni204C" unicode="&#x204c;" horiz-adv-x="792" 
d="M827.5 1039.5q79.5 -98.5 52.5 -237.5t-144.5 -237.5t-256.5 -98.5t-218 98.5t-52 237.5t144 237.5t256 98.5t218.5 -98.5z" />
    <glyph glyph-name="uni204D" unicode="&#x204d;" horiz-adv-x="792" 
d="M196.5 1039.5q-79.5 -98.5 -52.5 -237.5t144.5 -237.5t256.5 -98.5t218 98.5t52 237.5t-144 237.5t-256 98.5t-218.5 -98.5z" />
    <glyph glyph-name="uni2053" unicode="&#x2053;" horiz-adv-x="1815" 
d="M903 861q-28.5 11 -60 11q-82.5 0 -180 -77l-46.5 -43l-222 85l45 43q157.5 148 367.5 205q105 29 202.5 29q108 0 205.5 -37l235.5 -90q28.5 -11 60 -11q82.5 0 181.5 78l45 42l223.5 -85l-46.5 -42q-156 -148 -367.5 -206q-103.5 -29 -199.5 -29q-109.5 0 -208.5 38z
" />
    <glyph glyph-name="uni2070" unicode="&#x2070;" 
d="M725 1473l-146 -746h175l145 746h-174zM1002 1692q72 0 114 -47t29 -115l-167 -861q-13 -67 -74 -114t-132 -47h-297q-70 0 -112 47q-43 47 -30 114l167 861q14 68 75 115q60 47 130 47h297z" />
    <glyph glyph-name="uni2074" unicode="&#x2074;" horiz-adv-x="977" 
d="M728 995l136 697h235l-136 -697h93l-42 -219h-93l-52 -268h-236l53 268h-257q-70 0 -112 46q-43 48 -30 115l255 755h217l-224 -697h193z" />
    <glyph glyph-name="uni2075" unicode="&#x2075;" 
d="M732 1473l-43 -220q128 60 215 60q58 0 99 -26q90 -60 58 -228l-76 -390q-13 -67 -74 -114t-132 -47h-297q-70 0 -112 47q-43 47 -30 114l46 239h236l-36 -181h175l64 332q9 44 -3 60t-58 16q-48 0 -74 -15q-31 -18 -39 -61l-16 -83h-235l139 716h645l-43 -219h-409z" />
    <glyph glyph-name="uni2076" unicode="&#x2076;" 
d="M579 727h175l41 213q9 44 -9 61q-16 16 -63 16t-69 -16q-25 -17 -33 -61zM665 1166q100 49 177 49q68 0 118 -37q102 -75 70 -238l-52 -271q-13 -67 -74 -114t-132 -47h-297q-70 0 -112 47q-43 47 -30 114l167 861q14 68 75 115q60 47 130 47h297q72 0 114 -47t29 -115
l-46 -238h-235l35 181h-174z" />
    <glyph glyph-name="uni2077" unicode="&#x2077;" 
d="M688 1473l-36 -181h-235l46 238q14 68 75 115q60 47 130 47h297q72 0 114 -47t29 -115q-31 -161 -102 -296q-49 -94 -176 -274q-153 -216 -189 -403l-10 -49h-235l10 49q28 146 96 276q49 94 163 256q154 219 195 384h-172z" />
    <glyph glyph-name="uni2078" unicode="&#x2078;" 
d="M887 1473h-174l-37 -187q-8 -44 9 -61q16 -15 64 -15q47 0 69 15q24 17 32 61zM567 727h175l36 187q9 44 -9 61q-16 15 -63 15t-70 -15q-24 -17 -32 -61zM441 1286l47 244q14 68 75 115q60 47 130 47h297q72 0 114 -47t29 -115l-47 -244q-23 -115 -104 -186
q54 -71 31 -186l-47 -245q-13 -67 -74 -114t-132 -47h-297q-70 0 -112 47q-43 47 -30 114l48 245q22 115 103 186q-53 71 -31 186z" />
    <glyph glyph-name="uni2079" unicode="&#x2079;" 
d="M886 1473h-174l-42 -214q-8 -43 8 -60q16 -16 64 -16q47 0 69 16q25 17 33 60zM800 1034q-99 -49 -177 -49q-68 0 -118 37q-102 75 -70 237l52 271q14 68 75 115q60 47 130 47h297q72 0 114 -47t29 -115l-167 -861q-13 -67 -74 -114t-132 -47h-297q-70 0 -112 47
q-43 47 -30 114l46 239h236l-36 -181h175z" />
    <glyph glyph-name="uni207A" unicode="&#x207a;" horiz-adv-x="913" 
d="M746 1164h228l-38 -198h-229l-44 -229h-198l45 229h-229l38 198h229l44 228h198z" />
    <glyph glyph-name="uni207B" unicode="&#x207b;" horiz-adv-x="863" 
d="M928 868h-655l38 198h655z" />
    <glyph glyph-name="uni207C" unicode="&#x207c;" horiz-adv-x="871" 
d="M905 729h-655l38 199h655zM979 1112h-655l38 197h656z" />
    <glyph glyph-name="uni207D" unicode="&#x207d;" horiz-adv-x="784" 
d="M566 1635q24 126 135 202q104 72 239 72h39l-30 -151h-39q-105 -11 -119 -83l-207 -1065q-14 -72 87 -83h39l-29 -151h-39q-135 0 -211 72q-81 76 -57 202z" />
    <glyph glyph-name="uni207E" unicode="&#x207e;" horiz-adv-x="788" 
d="M577 650q-24 -126 -135 -202q-104 -72 -239 -72h-39l29 151h40q105 11 119 83l207 1065q14 72 -87 83h-39l29 151h39q135 0 211 -72q81 -76 57 -202z" />
    <glyph glyph-name="uni207F" unicode="&#x207f;" horiz-adv-x="1033" 
d="M614 1292l-140 -725h-224l219 1125h310l41 -728l142 728h223l-219 -1125h-309z" />
    <glyph glyph-name="uni2080" unicode="&#x2080;" 
d="M725 373l-146 -746h175l145 746h-174zM1002 592q72 0 114 -47t29 -115l-167 -861q-13 -67 -74 -114t-132 -47h-297q-70 0 -112 47q-43 47 -30 114l167 861q14 68 75 115q60 47 130 47h297z" />
    <glyph glyph-name="uni2081" unicode="&#x2081;" 
d="M797 -373h205l-42 -219h-645l42 219h205l145 746h-205l43 219h266q71 0 113 -47q43 -47 29 -115z" />
    <glyph glyph-name="uni2082" unicode="&#x2082;" 
d="M567 -373h410l-42 -219h-645l79 406q26 136 132 217q104 79 248 79q47 0 69 15q24 17 33 61l36 187h-175l-35 -181h-235l46 238q14 68 75 115q60 47 131 47h296q72 0 114 -47q43 -47 29 -115l-47 -244q-26 -136 -132 -217q-104 -79 -248 -79q-48 0 -69 -15
q-25 -17 -33 -61z" />
    <glyph glyph-name="uni2083" unicode="&#x2083;" 
d="M870 373h-175l-35 -181h-235l46 238q14 68 75 115q60 47 131 47h296q72 0 114 -47q43 -47 29 -115l-47 -244q-22 -115 -104 -186q54 -71 32 -186l-48 -245q-13 -67 -74 -114q-60 -47 -132 -47h-296q-71 0 -113 47q-43 47 -30 114l46 239h235l-35 -181h175l37 187
q8 44 -9 61q-17 15 -64 15h-116l43 220h116q47 0 69 15q24 17 33 61z" />
    <glyph glyph-name="uni2084" unicode="&#x2084;" horiz-adv-x="977" 
d="M728 -105l136 697h235l-136 -697h93l-42 -219h-93l-52 -268h-236l53 268h-257q-70 0 -112 46q-43 48 -30 115l255 755h217l-224 -697h193z" />
    <glyph glyph-name="uni2085" unicode="&#x2085;" 
d="M732 373l-43 -220q128 60 215 60q58 0 99 -26q90 -60 58 -228l-76 -390q-13 -67 -74 -114t-132 -47h-297q-70 0 -112 47q-43 47 -30 114l46 239h236l-36 -181h175l64 332q9 44 -3 60t-58 16q-48 0 -74 -15q-31 -18 -39 -61l-16 -83h-235l139 716h645l-43 -219h-409z" />
    <glyph glyph-name="uni2086" unicode="&#x2086;" 
d="M579 -373h175l41 213q9 44 -9 61q-16 16 -63 16t-69 -16q-25 -17 -33 -61zM665 66q100 49 177 49q68 0 118 -37q102 -75 70 -238l-52 -271q-13 -67 -74 -114t-132 -47h-297q-70 0 -112 47q-43 47 -30 114l167 861q14 68 75 115q60 47 130 47h297q72 0 114 -47t29 -115
l-46 -238h-235l35 181h-174z" />
    <glyph glyph-name="uni2087" unicode="&#x2087;" 
d="M688 373l-36 -181h-235l46 238q14 68 75 115q60 47 130 47h297q72 0 114 -47t29 -115q-31 -161 -102 -296q-49 -94 -176 -274q-153 -216 -189 -403l-10 -49h-235l10 49q28 146 96 276q49 94 163 256q154 219 195 384h-172z" />
    <glyph glyph-name="uni2088" unicode="&#x2088;" 
d="M887 373h-174l-37 -187q-8 -44 9 -61q16 -15 64 -15q47 0 69 15q24 17 32 61zM567 -373h175l36 187q9 44 -9 61q-16 15 -63 15t-70 -15q-24 -17 -32 -61zM441 186l47 244q14 68 75 115q60 47 130 47h297q72 0 114 -47t29 -115l-47 -244q-23 -115 -104 -186
q54 -71 31 -186l-47 -245q-13 -67 -74 -114t-132 -47h-297q-70 0 -112 47q-43 47 -30 114l48 245q22 115 103 186q-53 71 -31 186z" />
    <glyph glyph-name="uni2089" unicode="&#x2089;" 
d="M886 373h-174l-42 -214q-8 -43 8 -60q16 -16 64 -16q47 0 69 16q25 17 33 60zM800 -66q-99 -49 -177 -49q-68 0 -118 37q-102 75 -70 237l52 271q14 68 75 115q60 47 130 47h297q72 0 114 -47t29 -115l-167 -861q-13 -67 -74 -114t-132 -47h-297q-70 0 -112 47
q-43 47 -30 114l46 239h236l-36 -181h175z" />
    <glyph glyph-name="uni208A" unicode="&#x208a;" horiz-adv-x="913" 
d="M746 100h228l-38 -198h-229l-44 -229h-198l45 229h-229l38 198h229l44 228h198z" />
    <glyph glyph-name="uni208B" unicode="&#x208b;" horiz-adv-x="863" 
d="M928 -99h-655l38 198h655z" />
    <glyph glyph-name="uni208C" unicode="&#x208c;" horiz-adv-x="871" 
d="M905 -290h-655l38 199h655zM979 93h-655l38 197h656z" />
    <glyph glyph-name="uni208D" unicode="&#x208d;" horiz-adv-x="784" 
d="M566 850q24 126 135 202q104 72 239 72h39l-30 -151h-39q-105 -11 -119 -83l-207 -1065q-14 -72 87 -83h39l-29 -151h-39q-135 0 -211 72q-81 76 -57 202z" />
    <glyph glyph-name="uni208E" unicode="&#x208e;" horiz-adv-x="788" 
d="M577 -135q-24 -126 -135 -202q-104 -72 -239 -72h-39l29 151h40q105 11 119 83l207 1065q14 72 -87 83h-39l29 151h39q135 0 211 -72q81 -76 57 -202z" />
    <glyph glyph-name="franc" unicode="&#x20a3;" horiz-adv-x="1092" 
d="M413 1692h896l-61 -313h-560l-73 -376h466l-61 -314h-466l-134 -689h-336zM552.5 316h-568.5l21 213h568.5z" />
    <glyph glyph-name="lira" unicode="&#x20a4;" horiz-adv-x="1359" 
d="M534 1136l26 133q37 194 208 312q161 111 369 111h356l-61 -313h-356q-159 0 -180 -110l-26 -133h314l-45 -229h-314l-32 -165h314l-44 -228h-314q-23 -114 -94 -201h615l-61 -313h-1053l61 313q159 0 180 110l18 91h-165l44 228h165l5 22h-2l27 143h-163l45 229h163z
" />
    <glyph glyph-name="peseta" unicode="&#x20a7;" horiz-adv-x="2523" 
d="M654 1379l-90 -463h143q143 0 164 109l69 354h-286zM1230 1310l-56 -285q-37 -193 -194 -311q-147 -111 -334 -111h-143l-117 -603h-302l329 1692h667q91 0 144 -67q7 -9 12 -18h1226q96 0 153 -63q58 -65 41 -156l-63 -323h-320l48 245h-302l-50 -254q-20 -103 131 -103
q198 0 310 -106q119 -112 83 -296l-64 -332q-18 -91 -102 -155q-81 -64 -177 -64h-469q-96 0 -154 64q-57 64 -39 155l63 324h319l-48 -246h302l49 254q20 104 -131 104q-197 0 -308 105q-120 112 -84 296l50 254h-76l-255 -1310h-318l255 1310h-76z" />
    <glyph glyph-name="Euro" unicode="&#x20ac;" horiz-adv-x="1170" 
d="M612 569l-50 -256h271l50 259h285l-66 -341q-19 -96 -95 -164q-75 -67 -161 -67h-419q-86 0 -135 67q-50 68 -31 164l66 338h-148l41 213h148l29 149h-148l41 213h148l62 317q19 96 95 164q75 67 161 67h419q86 0 135 -67q50 -68 31 -164l-66 -340h-285l50 258h-271
l-46 -235h188l-41 -213h-188l-29 -149h188l-41 -213h-188z" />
    <glyph glyph-name="uni20AF" unicode="&#x20af;" horiz-adv-x="2402" 
d="M688 1379l-207 -1066h159q159 0 180 110l186 956h-318zM413 1692h742q101 0 161 -67q61 -68 42 -164l-202 -1038q-37 -194 -208 -312q-161 -111 -369 -111h-495zM1954 1310l-86 -440h151q151 0 171 104l66 336h-302zM1692 1607h705q96 0 153 -63q58 -65 41 -156l-81 -414
q-35 -184 -198 -296q-153 -105 -351 -105h-151l-111 -573h-319z" />
    <glyph glyph-name="uni2100" unicode="&#x2100;" horiz-adv-x="2418" 
d="M464.5 954.25h116.25l41.25 513.75zM377.5 731.5l-96 -244.5h-242.25l468 1205.25h318l-0.75 -1205.25h-243v244.5h-204zM739 0l953 1692h262l-954 -1692h-261zM2255 982.5h-226.5l-147.75 -759.75h226.5l36 184.5h240l-47.25 -243q-13.5 -68.25 -76.5 -116.25
q-60.75 -48 -132.75 -48h-351.75q-72 0 -115.5 48q-42.75 48 -29.25 116.25l170.25 876.75q12.75 68.25 75 117q61.5 47.25 133.5 47.25h351.75q72 0 114.75 -47.25q43.5 -48.75 30.75 -117l-47.25 -242.25h-240z" />
    <glyph glyph-name="uni2105" unicode="&#x2105;" horiz-adv-x="2528" 
d="M781 1469.5h-226.5l-147.75 -759.75h226.5l36 184.5h240l-47.25 -243q-13.5 -68.25 -76.5 -116.25q-60.75 -48 -132.75 -48h-351.75q-72 0 -115.5 48q-42.75 48 -29.25 116.25l170.25 876.75q12.75 68.25 75 117q61.5 47.25 133.5 47.25h351.75q72 0 114.75 -47.25
q43.5 -48.75 30.75 -117l-47.25 -242.25h-240zM795 0l953 1692h262l-954 -1692h-261zM2084.5 982.5l-147.75 -759.75h226.5l147.75 759.75h-226.5zM2416.75 1205.25q72 0 114.75 -47.25q43.5 -48.75 30.75 -117l-170.25 -876.75q-13.5 -68.25 -76.5 -116.25
q-60.75 -48 -132.75 -48h-351.75q-72 0 -115.5 48q-42.75 48 -29.25 116.25l170.25 876.75q12.75 68.25 75 117q61.5 47.25 133.5 47.25h351.75z" />
    <glyph glyph-name="uni2106" unicode="&#x2106;" horiz-adv-x="2539" 
d="M781 1469.5h-226.5l-147.75 -759.75h226.5l36 184.5h240l-47.25 -243q-13.5 -68.25 -76.5 -116.25q-60.75 -48 -132.75 -48h-351.75q-72 0 -115.5 48q-42.75 48 -29.25 116.25l170.25 876.75q12.75 68.25 75 117q61.5 47.25 133.5 47.25h351.75q72 0 114.75 -47.25
q43.5 -48.75 30.75 -117l-47.25 -242.25h-240zM795 0l953 1692h262l-954 -1692h-261zM1942.75 222.75h226.5l190.5 982.5h240l-201.75 -1041q-13.5 -68.25 -76.5 -116.25q-60.75 -48 -132.75 -48h-351.75q-72 0 -115.5 48q-42.75 48 -29.25 116.25l201.75 1041h239.25z" />
    <glyph glyph-name="uni2116" unicode="&#x2116;" horiz-adv-x="2258" 
d="M632 1090l-212 -1090h-336l329 1692h466l62 -1095l213 1095h336l-329 -1692h-465zM1847.66 1513.97l-130.015 -607.775h199.312l130.015 607.775h-199.312zM2140.03 1692.16q63.3574 0 100.976 -37.7988q38.2783 -38.998 27.0596 -93.5967l-149.814 -701.371
q-11.8789 -54.5977 -67.3174 -92.9961q-53.457 -38.3984 -116.814 -38.3984h-309.528q-63.3574 0 -101.636 38.3984q-37.6182 38.3984 -25.7383 92.9961l149.813 701.371q11.2197 54.5986 65.9971 93.5967q54.1182 37.7988 117.476 37.7988h309.527zM2038.5 302h-568.5
l21 213h568.5z" />
    <glyph glyph-name="trademark" unicode="&#x2122;" horiz-adv-x="1305" 
d="M712 1482h-148l-107 -552h-150l107 552h-148l24 125h656l32 -550l246 550h209l-131 -677h-151l86 446l-191 -446h-184l-20 446l-86 -446h-151z" />
    <glyph glyph-name="estimated" unicode="&#x212e;" horiz-adv-x="1179" 
d="M683 1236l-54 -278h302l54 278h-302zM571 661l-70 -364h302l48 246h320l-63 -324q-18 -91 -102 -155q-81 -64 -177 -64h-469q-96 0 -154 64q-57 64 -39 155l212 1095q18 91 101 156q82 63 178 63h469q96 0 153 -63q58 -65 40 -156l-69 -356h1l-58 -297h-623z" />
    <glyph glyph-name="onethird" unicode="&#x2153;" horiz-adv-x="2698" 
d="M797 727h205l-42 -219h-645l42 219h205l145 746h-205l43 219h266q71 0 113 -47q43 -47 29 -115zM906 0l953 1692h262l-954 -1692h-261zM2542 935h-175l-35 -181h-235l46 238q14 68 75 115q60 47 131 47h296q72 0 114 -47q43 -47 29 -115l-47 -244q-22 -115 -104 -186
q54 -71 32 -186l-48 -245q-13 -67 -74 -114q-60 -47 -132 -47h-296q-71 0 -113 47q-43 47 -30 114l46 239h235l-35 -181h175l37 187q8 44 -9 61q-17 15 -64 15h-116l43 220h116q47 0 69 15q24 17 33 61z" />
    <glyph glyph-name="twothirds" unicode="&#x2154;" horiz-adv-x="2698" 
d="M567 727h410l-42 -219h-645l79 406q26 136 132 217q104 79 248 79q47 0 69 15q24 17 33 61l36 187h-175l-35 -181h-235l46 238q14 68 75 115q60 47 131 47h296q72 0 114 -47q43 -47 29 -115l-47 -244q-26 -136 -132 -217q-104 -79 -248 -79q-48 0 -69 -15
q-25 -17 -33 -61zM906 0l953 1692h262l-954 -1692h-261zM2542 935h-175l-35 -181h-235l46 238q14 68 75 115q60 47 131 47h296q72 0 114 -47q43 -47 29 -115l-47 -244q-22 -115 -104 -186q54 -71 32 -186l-48 -245q-13 -67 -74 -114q-60 -47 -132 -47h-296q-71 0 -113 47
q-43 47 -30 114l46 239h235l-35 -181h175l37 187q8 44 -9 61q-17 15 -64 15h-116l43 220h116q47 0 69 15q24 17 33 61z" />
    <glyph glyph-name="minus" unicode="&#x2212;" horiz-adv-x="1144" 
d="M1192 783h-936l55 283h936z" />
    <glyph glyph-name="approxequal" unicode="&#x2248;" horiz-adv-x="1310" 
d="M652 931q-19 11 -40 11q-55 0 -120 -77l-31 -43l-148 85l30 43q105 148 245 205q70 29 135 29q72 0 137 -37l157 -90q19 -11 40 -11q55 0 121 78l30 42l149 -85l-31 -42q-104 -148 -245 -206q-69 -29 -133 -29q-73 0 -139 38zM652 551q-19 11 -40 11q-55 0 -120 -77
l-31 -43l-148 85l30 43q105 148 245 205q70 29 135 29q72 0 137 -37l157 -90q19 -11 40 -11q55 0 121 78l30 42l149 -85l-31 -42q-104 -148 -245 -206q-69 -29 -133 -29q-73 0 -139 38z" />
    <glyph glyph-name="equivalence" unicode="&#x2261;" horiz-adv-x="1144" 
d="M1192 783h-936l55 283h936zM1192 217h-936l55 283h936zM1192 1349h-936l55 283h936z" />
    <glyph glyph-name="lessequal" unicode="&#x2264;" horiz-adv-x="1144" 
d="M563 900l614 -192l-55 -283l-872 331l56 288l1000 331l-55 -283zM1192 0h-936l55 283h936z" />
    <glyph glyph-name="greaterequal" unicode="&#x2265;" horiz-adv-x="1144" 
d="M315 1092l55 283l872 -331l-56 -288l-1000 -331l55 283l688 192zM1192 0h-936l55 283h936z" />
    <glyph glyph-name="uniFB00" unicode="&#xfb00;" horiz-adv-x="2066" 
d="M452 1607h851l-57 -297h-532l-70 -357h443l-58 -298h-443l-127 -655h-319zM1485 1607h851l-57 -297h-532l-70 -357h443l-58 -298h-443l-127 -655h-319z" />
    <glyph glyph-name="uniFB01" unicode="&#xfb01;" horiz-adv-x="1669" 
d="M452 1607h851l-57 -297h-532l-70 -357h443l-58 -298h-443l-127 -655h-319zM1173 0l312 1607h319l-312 -1607h-319z" />
    <glyph glyph-name="uniFB02" unicode="&#xfb02;" horiz-adv-x="1979" 
d="M452 1607h851l-57 -297h-532l-70 -357h443l-58 -298h-443l-127 -655h-319zM1172 0l312 1607h319l-254 -1310h443l-58 -297h-762z" />
    <glyph glyph-name="uniFB03" unicode="&#xfb03;" horiz-adv-x="2702" 
d="M452 1607h851l-57 -297h-532l-70 -357h443l-58 -298h-443l-127 -655h-319zM1485 1607h851l-57 -297h-532l-70 -357h443l-58 -298h-443l-127 -655h-319zM2206 0l312 1607h319l-312 -1607h-319z" />
    <glyph glyph-name="uniFB04" unicode="&#xfb04;" horiz-adv-x="3012" 
d="M452 1607h851l-57 -297h-532l-70 -357h443l-58 -298h-443l-127 -655h-319zM1485 1607h851l-57 -297h-532l-70 -357h443l-58 -298h-443l-127 -655h-319zM2205 0l312 1607h319l-254 -1310h443l-58 -297h-762z" />
    <glyph glyph-name="uniFB05" unicode="&#xfb05;" horiz-adv-x="1889" 
d="M714 1310l-70 -357h443l-58 -298h-443l-127 -655h-319l312 1607h1736l-57 -297h-311l-255 -1310h-318l255 1310h-788z" />
    <glyph glyph-name="uniFB06" unicode="&#xfb06;" horiz-adv-x="1955" 
d="M690 1310l-50 -254q-20 -103 131 -103q198 0 310 -106q119 -112 83 -296l-64 -332q-18 -91 -102 -155q-81 -64 -177 -64h-469q-96 0 -154 64q-57 64 -39 155l63 324h319l-48 -246h302l49 254q20 104 -131 104q-197 0 -308 105q-120 112 -84 296l65 332q17 91 100 156
q82 63 178 63h1590l-57 -297h-311l-255 -1310h-318l255 1310h-878z" />
    </font>
</defs>
</svg>
